<svg width="335" height="161" viewBox="0 0 335 161" fill="none" xmlns="http://www.w3.org/2000/svg">
<path d="M17.7656 139.881L21.0259 152.646C22.157 157.074 46.1772 154.76 74.6816 147.479C103.186 140.199 125.377 130.721 124.245 126.292L120.985 113.528L17.7656 139.881Z" fill="#FFAC00"/>
<mask id="mask0" mask-type="alpha" maskUnits="userSpaceOnUse" x="17" y="113" width="110" height="48">
<path d="M17.7656 139.881L21.0259 152.646C22.157 157.074 46.1772 154.76 74.6816 147.479C103.186 140.199 125.377 130.721 124.245 126.292L120.985 113.528L17.7656 139.881Z" fill="#FFAC00"/>
</mask>
<g mask="url(#mask0)">
<path d="M19.9935 133.666L17.5488 134.29L25.0213 163.546L27.466 162.921L19.9935 133.666Z" fill="#F48200"/>
<path d="M26.3236 132.046L23.8789 132.67L31.3514 161.926L33.7961 161.301L26.3236 132.046Z" fill="#F48200"/>
<path d="M33.556 130.198L31.1113 130.822L38.5838 160.078L41.0285 159.454L33.556 130.198Z" fill="#F48200"/>
<path d="M42.5853 127.892L40.1406 128.516L47.6131 157.772L50.0578 157.148L42.5853 127.892Z" fill="#F48200"/>
<path d="M52.5052 125.359L50.0605 125.983L57.533 155.239L59.9777 154.615L52.5052 125.359Z" fill="#F48200"/>
<path d="M63.3255 122.605L60.8809 123.229L68.3534 152.485L70.798 151.861L63.3255 122.605Z" fill="#F48200"/>
<path d="M118.513 108.521L116.068 109.145L123.541 138.401L125.986 137.776L118.513 108.521Z" fill="#F48200"/>
<path d="M112.181 110.137L109.736 110.762L117.209 140.018L119.653 139.393L112.181 110.137Z" fill="#F48200"/>
<path d="M104.947 111.975L102.502 112.599L109.974 141.855L112.419 141.231L104.947 111.975Z" fill="#F48200"/>
<path d="M95.9173 114.28L93.4727 114.905L100.945 144.161L103.39 143.536L95.9173 114.28Z" fill="#F48200"/>
<path d="M86.0013 116.814L83.5566 117.438L91.0291 146.694L93.4738 146.07L86.0013 116.814Z" fill="#F48200"/>
<path d="M75.179 119.578L72.7344 120.202L80.2069 149.458L82.6515 148.834L75.179 119.578Z" fill="#F48200"/>
</g>
<path d="M120.937 113.293C122.068 117.721 99.8776 127.199 71.3732 134.48C42.8562 141.753 18.836 144.068 17.7049 139.639C16.5737 135.211 38.7643 125.733 67.2687 118.452C95.7856 111.179 119.806 108.865 120.937 113.293Z" fill="#FFDC00"/>
<path d="M70.06 129.343C92.7193 123.555 110.663 117.199 110.139 115.146C109.614 113.094 90.8204 116.121 68.1611 121.909C45.5018 127.696 27.5579 134.052 28.0822 136.105C28.6066 138.158 47.4006 135.131 70.06 129.343Z" fill="#FFAC00"/>
<path d="M30.1195 136.727C34.8403 133.899 50.1961 128.792 68.714 124.073C87.2193 119.346 103.153 116.461 108.655 116.689C109.71 116.057 110.239 115.537 110.142 115.156C109.617 113.103 90.8271 116.13 68.1612 121.909C45.498 127.697 27.5552 134.041 28.0798 136.095C28.167 136.479 28.8803 136.681 30.1195 136.727Z" fill="#F48200"/>
<path d="M20.2246 123.799L23.4849 136.564C24.616 140.992 48.6362 138.678 77.1406 131.397C105.648 124.127 127.836 114.639 126.704 110.21L123.444 97.4458L20.2246 123.799Z" fill="#FFAC00"/>
<mask id="mask1" mask-type="alpha" maskUnits="userSpaceOnUse" x="20" y="97" width="109" height="48">
<path d="M20.2246 123.799L23.4849 136.564C24.616 140.992 48.6362 138.678 77.1406 131.397C105.648 124.127 127.836 114.639 126.704 110.21L123.444 97.4458L20.2246 123.799Z" fill="#FFAC00"/>
</mask>
<g mask="url(#mask1)">
<path d="M22.4486 117.587L20.0039 118.212L27.4764 147.468L29.9211 146.843L22.4486 117.587Z" fill="#F48200"/>
<path d="M28.7767 115.97L26.332 116.595L33.8045 145.851L36.2492 145.226L28.7767 115.97Z" fill="#F48200"/>
<path d="M36.0111 114.12L33.5664 114.745L41.0389 144L43.4836 143.376L36.0111 114.12Z" fill="#F48200"/>
<path d="M45.0404 111.816L42.5957 112.44L50.0682 141.696L52.5129 141.071L45.0404 111.816Z" fill="#F48200"/>
<path d="M54.9525 109.284L52.5078 109.908L59.9803 139.164L62.425 138.54L54.9525 109.284Z" fill="#F48200"/>
<path d="M65.7767 106.52L63.332 107.145L70.8045 136.4L73.2492 135.776L65.7767 106.52Z" fill="#F48200"/>
<path d="M120.968 92.4322L118.523 93.0566L125.996 122.312L128.441 121.688L120.968 92.4322Z" fill="#F48200"/>
<path d="M114.63 94.0509L112.186 94.6753L119.658 123.931L122.103 123.307L114.63 94.0509Z" fill="#F48200"/>
<path d="M107.4 95.8976L104.955 96.522L112.428 125.778L114.872 125.153L107.4 95.8976Z" fill="#F48200"/>
<path d="M98.3724 98.2027L95.9277 98.8271L103.4 128.083L105.845 127.459L98.3724 98.2027Z" fill="#F48200"/>
<path d="M88.4544 100.737L86.0098 101.361L93.4823 130.617L95.9269 129.993L88.4544 100.737Z" fill="#F48200"/>
<path d="M77.6302 103.502L75.1855 104.126L82.658 133.382L85.1027 132.758L77.6302 103.502Z" fill="#F48200"/>
</g>
<path d="M73.8319 118.398C102.335 111.118 124.524 101.627 123.393 97.2005C122.262 92.7738 98.24 95.0869 69.7374 102.367C41.2348 109.647 19.0455 119.137 20.1762 123.564C21.3068 127.991 45.3293 125.678 73.8319 118.398Z" fill="#FFDC00"/>
<path d="M112.598 99.0628C113.123 101.117 95.1728 107.473 72.517 113.249C49.8537 119.038 31.0613 122.055 30.5367 120.002C30.0121 117.948 47.9624 111.591 70.6182 105.815C93.284 100.036 112.074 97.0089 112.598 99.0628Z" fill="#FFAC00"/>
<path d="M32.5764 120.643C37.2972 117.815 52.653 112.709 71.1709 107.989C89.6762 103.263 105.61 100.378 111.111 100.605C112.167 99.9731 112.696 99.4537 112.598 99.073C112.074 97.0191 93.284 100.047 70.6181 105.825C47.9549 111.614 30.0121 117.958 30.5367 120.012C30.6314 120.382 31.3473 120.595 32.5764 120.643Z" fill="#F48200"/>
<path d="M22.5527 107.738L25.813 120.502C26.9441 124.931 50.9643 122.616 79.4688 115.336C107.976 108.065 130.164 98.577 129.033 94.1486L125.772 81.3842L22.5527 107.738Z" fill="#FFAC00"/>
<mask id="mask2" mask-type="alpha" maskUnits="userSpaceOnUse" x="22" y="81" width="110" height="48">
<path d="M22.5547 107.738L25.8149 120.503C26.9461 124.931 50.9663 122.617 79.4707 115.336C107.978 108.066 130.166 98.5775 129.034 94.1491L125.774 81.3847L22.5547 107.738Z" fill="#FFAC00"/>
</mask>
<g mask="url(#mask2)">
<path d="M24.7806 101.534L22.3359 102.158L29.8084 131.414L32.2531 130.79L24.7806 101.534Z" fill="#F48200"/>
<path d="M31.1068 99.9205L28.6621 100.545L36.1346 129.801L38.5793 129.176L31.1068 99.9205Z" fill="#F48200"/>
<path d="M38.3431 98.0709L35.8984 98.6953L43.3709 127.951L45.8156 127.327L38.3431 98.0709Z" fill="#F48200"/>
<path d="M47.3724 95.7623L44.9277 96.3867L52.4002 125.643L54.8449 125.018L47.3724 95.7623Z" fill="#F48200"/>
<path d="M57.2904 93.2306L54.8457 93.855L62.3182 123.111L64.7629 122.486L57.2904 93.2306Z" fill="#F48200"/>
<path d="M68.1087 90.4674L65.6641 91.0918L73.1366 120.348L75.5812 119.723L68.1087 90.4674Z" fill="#F48200"/>
<path d="M123.298 76.3824L120.854 77.0068L128.326 106.263L130.771 105.638L123.298 76.3824Z" fill="#F48200"/>
<path d="M116.964 78.0006L114.52 78.625L121.992 107.881L124.437 107.256L116.964 78.0006Z" fill="#F48200"/>
<path d="M109.736 79.8448L107.291 80.4692L114.764 109.725L117.208 109.101L109.736 79.8448Z" fill="#F48200"/>
<path d="M100.701 82.1544L98.2559 82.7788L105.728 112.035L108.173 111.41L100.701 82.1544Z" fill="#F48200"/>
<path d="M90.7826 84.6871L88.3379 85.3115L95.8104 114.567L98.255 113.943L90.7826 84.6871Z" fill="#F48200"/>
<path d="M79.9603 87.441L77.5156 88.0654L84.9881 117.321L87.4328 116.697L79.9603 87.441Z" fill="#F48200"/>
</g>
<path d="M125.729 81.1507C126.86 85.5792 104.67 95.0572 76.1653 102.338C47.6583 109.608 23.6381 111.923 22.5095 107.504C21.3784 103.076 43.5689 93.5978 72.0733 86.3172C100.58 79.0467 124.601 76.7323 125.729 81.1507Z" fill="#FFDC00"/>
<path d="M114.93 83.0125C115.455 85.0664 97.5048 91.4229 74.849 97.199C52.1858 102.988 33.3934 106.005 32.8687 103.951C32.3441 101.897 50.2944 95.5408 72.9502 89.7648C95.616 83.9862 114.406 80.9586 114.93 83.0125Z" fill="#FFAC00"/>
<path d="M34.9104 104.593C39.6312 101.765 54.987 96.6583 73.5049 91.9391C92.0102 87.2125 107.944 84.3274 113.445 84.5552C114.501 83.9228 115.03 83.4034 114.932 83.0227C114.408 80.9688 95.6179 83.9964 72.9521 89.775C50.2889 95.5636 32.3461 101.908 32.8707 103.961C32.9654 104.332 33.6812 104.544 34.9104 104.593Z" fill="#F48200"/>
<path d="M6.50586 95.7607L9.76612 108.525C10.8972 112.954 34.9175 110.639 63.4219 103.359C91.9288 96.0881 114.117 86.6 112.986 82.1715L109.725 69.4072L6.50586 95.7607Z" fill="#FFAC00"/>
<mask id="mask3" mask-type="alpha" maskUnits="userSpaceOnUse" x="6" y="69" width="110" height="48">
<path d="M6.50781 95.7603L9.76807 108.525C10.8992 112.953 34.9194 110.639 63.4238 103.358C91.9308 96.0876 114.119 86.5995 112.988 82.1711L109.727 69.4067L6.50781 95.7603Z" fill="#FFAC00"/>
</mask>
<g mask="url(#mask3)">
<path d="M8.73959 89.5558L6.29492 90.1802L13.7674 119.436L16.2121 118.812L8.73959 89.5558Z" fill="#F48200"/>
<path d="M15.0677 87.9371L12.623 88.5615L20.0955 117.817L22.5402 117.193L15.0677 87.9371Z" fill="#F48200"/>
<path d="M22.2962 86.0904L19.8516 86.7148L27.3241 115.971L29.7687 115.346L22.2962 86.0904Z" fill="#F48200"/>
<path d="M31.3314 83.7823L28.8867 84.4067L36.3592 113.663L38.8039 113.038L31.3314 83.7823Z" fill="#F48200"/>
<path d="M41.2435 81.2506L38.7988 81.875L46.2713 111.131L48.716 110.506L41.2435 81.2506Z" fill="#F48200"/>
<path d="M52.0638 78.4884L49.6191 79.1128L57.0916 108.369L59.5363 107.744L52.0638 78.4884Z" fill="#F48200"/>
<path d="M107.255 64.4015L104.811 65.0259L112.283 94.2817L114.728 93.6573L107.255 64.4015Z" fill="#F48200"/>
<path d="M100.923 66.0191L98.4785 66.6436L105.951 95.8994L108.396 95.275L100.923 66.0191Z" fill="#F48200"/>
<path d="M93.6869 67.8663L91.2422 68.4907L98.7147 97.7466L101.159 97.1221L93.6869 67.8663Z" fill="#F48200"/>
<path d="M84.6634 70.1715L82.2188 70.7959L89.6912 100.052L92.1359 99.4273L84.6634 70.1715Z" fill="#F48200"/>
<path d="M74.7435 72.7057L72.2988 73.3301L79.7713 102.586L82.216 101.962L74.7435 72.7057Z" fill="#F48200"/>
<path d="M63.9212 75.4581L61.4766 76.0825L68.9491 105.338L71.3937 104.714L63.9212 75.4581Z" fill="#F48200"/>
</g>
<path d="M109.678 69.1712C110.809 73.5997 88.6189 83.0777 60.1145 90.3583C31.6076 97.6289 7.58731 99.9432 6.45876 95.5248C5.32765 91.0964 27.5182 81.6183 56.0226 74.3377C84.5295 67.0672 108.55 64.7528 109.678 69.1712Z" fill="#FFDC00"/>
<path d="M58.7924 85.2209C81.4517 79.4333 99.3956 73.0773 98.8713 71.0244C98.3469 68.9715 79.5528 71.9991 56.8935 77.7867C34.2342 83.5743 16.2903 89.9303 16.8147 91.9832C17.339 94.0361 36.1331 91.0085 58.7924 85.2209Z" fill="#FFAC00"/>
<path d="M18.8637 92.6146C23.5844 89.7866 38.9402 84.6797 57.4581 79.9606C75.9635 75.234 91.8974 72.3488 97.3987 72.5766C98.4539 71.9442 98.9829 71.4249 98.8857 71.0441C98.3611 68.9902 79.5712 72.0178 56.9054 77.7964C34.2421 83.5851 16.2993 89.929 16.8239 91.9829C16.9086 92.3562 17.6245 92.5682 18.8637 92.6146Z" fill="#F48200"/>
<path d="M16.6426 77.7109L19.9028 90.4753C21.0339 94.9038 45.0542 92.5894 73.5586 85.3088C102.063 78.0282 124.254 68.5502 123.122 64.1217L119.862 51.3574L16.6426 77.7109Z" fill="#FFAC00"/>
<mask id="mask4" mask-type="alpha" maskUnits="userSpaceOnUse" x="16" y="51" width="110" height="48">
<path d="M16.6445 77.7109L19.9048 90.4753C21.0359 94.9038 45.0561 92.5894 73.5605 85.3088C102.065 78.0282 124.255 68.5502 123.124 64.1217L119.864 51.3574L16.6445 77.7109Z" fill="#FFAC00"/>
</mask>
<g mask="url(#mask4)">
<path d="M18.8568 71.4991L16.4121 72.1235L23.8846 101.379L26.3293 100.755L18.8568 71.4991Z" fill="#F48200"/>
<path d="M25.2064 69.8888L22.7617 70.5132L30.2342 99.769L32.6789 99.1446L25.2064 69.8888Z" fill="#F48200"/>
<path d="M32.4369 68.0387L29.9922 68.6631L37.4647 97.9189L39.9094 97.2945L32.4369 68.0387Z" fill="#F48200"/>
<path d="M41.4603 65.7374L39.0156 66.3618L46.4881 95.6177L48.9328 94.9932L41.4603 65.7374Z" fill="#F48200"/>
<path d="M51.3861 63.2018L48.9414 63.8262L56.4139 93.082L58.8586 92.4576L51.3861 63.2018Z" fill="#F48200"/>
<path d="M62.2064 60.4366L59.7617 61.061L67.2342 90.3169L69.6789 89.6925L62.2064 60.4366Z" fill="#F48200"/>
<path d="M117.394 46.3512L114.949 46.9756L122.422 76.2314L124.866 75.607L117.394 46.3512Z" fill="#F48200"/>
<path d="M111.048 47.9737L108.604 48.5981L116.076 77.854L118.521 77.2296L111.048 47.9737Z" fill="#F48200"/>
<path d="M103.827 49.817L101.383 50.4414L108.855 79.6972L111.3 79.0728L103.827 49.817Z" fill="#F48200"/>
<path d="M94.7982 52.1227L92.3535 52.7471L99.826 82.0029L102.271 81.3785L94.7982 52.1227Z" fill="#F48200"/>
<path d="M84.8724 54.6568L82.4277 55.2812L89.9002 84.5371L92.3449 83.9127L84.8724 54.6568Z" fill="#F48200"/>
<path d="M74.0579 57.4088L71.6133 58.0332L79.0858 87.289L81.5304 86.6646L74.0579 57.4088Z" fill="#F48200"/>
</g>
<path d="M119.817 51.1224C120.948 55.5509 98.7576 65.0289 70.2532 72.3095C41.7462 79.58 17.726 81.8944 16.5974 77.476C15.4663 73.0475 37.6568 63.5695 66.1612 56.2889C94.6582 49.0209 118.688 46.704 119.817 51.1224Z" fill="#FFDC00"/>
<path d="M68.931 67.1721C91.5903 61.3844 109.534 55.0285 109.01 52.9756C108.486 50.9227 89.6915 53.9503 67.0322 59.7379C44.3729 65.5255 26.429 71.8815 26.9533 73.9344C27.4777 75.9873 46.2717 72.9597 68.931 67.1721Z" fill="#FFAC00"/>
<path d="M29.0031 74.5635C33.7213 71.7254 49.0796 66.6286 67.585 61.902C86.0903 57.1754 102.024 54.2902 107.526 54.518C108.581 53.8857 109.11 53.3663 109.012 52.9856C108.488 50.9317 89.698 53.9593 67.0322 59.7379C44.369 65.5265 26.4262 71.8704 26.9508 73.9244C27.048 74.3051 27.7613 74.5071 29.0031 74.5635Z" fill="#F48200"/>
<g clip-path="url(#clip0)">
<path d="M293.457 58.4535C291.709 55.2065 288.855 50.6988 285.226 58.3286C283.992 60.9228 282.19 62.7074 280.674 64.1277C281.002 57.8996 279.03 50.8678 276.755 45.8877C275.903 44.0243 273.05 36.7515 274.808 26.2371C275.071 24.6678 273.427 23.484 272.023 24.2319C258.601 31.3784 249.163 43.4896 245.059 58.7744C245.059 58.7744 241.483 53.7936 240.817 46.042C240.638 43.9546 238.158 42.9375 236.612 44.352C236.315 44.6236 236.034 44.8997 235.775 45.1712C223.586 57.9306 214.96 74.9877 214.449 92.7579C213.583 122.515 253.009 140.871 279.417 128.712C305.254 116.815 306.592 82.8457 293.457 58.4535Z" fill="#ED694A"/>
<path d="M281.624 77.3727C280.333 74.9745 278.225 71.6448 275.545 77.2805C274.633 79.1964 273.302 80.5147 272.183 81.564C272.425 76.9637 270.968 71.7698 269.288 68.0915C268.659 66.7152 266.551 61.3435 267.85 53.5769C268.044 52.4177 266.83 51.5436 265.793 52.0959C255.88 57.3743 248.908 66.3202 245.877 77.6097C245.877 77.6097 243.236 73.9307 242.744 68.2053C242.612 66.6636 240.78 65.9123 239.638 66.9571C239.419 67.1577 239.211 67.3617 239.02 67.5622C230.017 76.9866 223.646 89.5852 223.268 102.711C222.628 124.69 251.749 138.248 271.254 129.267C290.338 120.48 291.326 95.3896 281.624 77.3727Z" fill="#F4A32C"/>
<path d="M228.623 105.803C229.247 93.0366 235.081 80.645 243.205 71.1526C242.998 70.2465 242.834 69.2612 242.743 68.2057C242.611 66.664 240.779 65.9124 239.637 66.9573C239.418 67.1578 239.21 67.3619 239.019 67.5626C230.016 76.987 223.645 89.5857 223.267 102.711C222.969 112.933 229.111 121.332 237.726 126.491C231.942 121.492 228.203 114.336 228.623 105.803Z" fill="#E89528"/>
<path d="M270.824 94.6456C269.95 93.0223 268.523 90.768 266.708 94.5831C266.092 95.8804 265.19 96.7725 264.432 97.4827C264.597 94.3684 263.611 90.8527 262.473 88.3626C262.047 87.431 260.62 83.7947 261.499 78.5372C261.631 77.7524 260.809 77.1606 260.107 77.5348C253.396 81.108 248.677 87.1638 246.625 94.8059C246.625 94.8059 244.837 92.3153 244.504 88.4399C244.415 87.3963 243.175 86.8877 242.402 87.5949C242.253 87.7305 242.113 87.8688 241.983 88.0044C235.889 94.3842 231.576 102.913 231.32 111.798C230.887 126.677 250.6 135.855 263.804 129.775C268.325 127.693 271.734 124.01 273.402 119.403C275.926 112.426 275.361 103.071 270.824 94.6456Z" fill="#F4D44E"/>
<path d="M260.8 110.674C260.313 109.77 259.518 108.514 258.507 110.639C258.163 111.362 257.661 111.859 257.239 112.255C257.33 110.52 256.781 108.561 256.147 107.174C255.91 106.654 255.115 104.628 255.605 101.699C255.678 101.262 255.22 100.933 254.829 101.141C251.09 103.132 248.461 106.505 247.318 110.763C247.318 110.763 246.322 109.376 246.136 107.216C246.086 106.635 245.395 106.351 244.965 106.746C244.882 106.821 244.804 106.898 244.732 106.974C241.337 110.528 238.934 115.28 238.791 120.23C238.463 131.519 258.017 136.122 262.237 124.467C263.642 120.58 263.328 115.368 260.8 110.674Z" fill="#EAE9E8"/>
<path d="M242.776 123.496C242.793 119.04 245.062 114.819 248.346 111.703C248.416 111.636 248.492 111.569 248.572 111.503C248.99 111.159 249.684 111.431 249.748 111.956C249.986 113.906 251.011 115.181 251.011 115.181C251.856 112.053 253.716 109.49 256.384 107.731C256.081 106.966 255.046 105.044 255.605 101.7C255.678 101.263 255.22 100.934 254.829 101.142C251.09 103.133 248.461 106.506 247.318 110.764C247.318 110.764 246.322 109.377 246.136 107.218C246.086 106.636 245.395 106.353 244.965 106.747C244.882 106.822 244.804 106.899 244.732 106.975C241.337 110.529 238.934 115.281 238.791 120.231C238.658 124.819 241.963 128.433 246.188 130.172C244.117 128.412 242.765 126.113 242.776 123.496Z" fill="#F7E7A1"/>
<path d="M256.19 25.9673C262.091 23.2252 263.964 15.7758 260.086 10.5692C254.186 13.3111 252.312 20.7607 256.19 25.9673Z" fill="#D8553A"/>
<path d="M306.763 72.7528C312.664 70.0106 314.537 62.5613 310.659 57.3546C307.962 58.6077 302.885 67.5461 306.763 72.7528Z" fill="#D8553A"/>
<path d="M219.323 53.8542C223.576 51.8778 224.926 46.5093 222.131 42.7565C220.188 43.6596 216.528 50.1017 219.323 53.8542Z" fill="#D8553A"/>
<path d="M286.448 45.4307C290.7 43.4543 292.05 38.0858 289.255 34.333C285.003 36.3092 283.653 41.6782 286.448 45.4307Z" fill="#D8553A"/>
<path d="M250.837 76.9284C254.066 67.572 259.868 59.9942 267.639 55.064C267.695 54.5786 267.765 54.0831 267.85 53.577C268.044 52.4178 266.83 51.5437 265.793 52.096C257.937 56.2787 251.933 62.767 248.269 70.8969L248.267 70.8956C247.995 71.4987 247.624 72.3832 247.353 73.0835C247.353 73.0842 247.353 73.0847 247.354 73.0855C246.789 74.5471 246.294 76.0554 245.876 77.61C246.039 77.6864 249.399 80.6489 250.837 76.9284Z" fill="#E89528"/>
<path d="M236.459 115.224C236.783 106.945 240.32 98.9237 245.45 92.4962C245.039 91.4403 244.645 90.0621 244.505 88.4396C244.415 87.396 243.176 86.8875 242.403 87.5946C242.254 87.7302 242.113 87.8684 241.984 88.0041C235.89 94.3839 231.577 102.912 231.321 111.798C231.118 118.765 235.334 124.483 241.23 127.969C238.145 124.569 236.262 120.216 236.459 115.224Z" fill="#E8C842"/>
<path d="M253.502 92.8928C255.052 89.0892 257.764 85.1526 261.221 82.1627C261.204 81.0672 261.28 79.8533 261.5 78.5377C261.631 77.753 260.81 77.1611 260.107 77.5353C255.926 79.7619 252.521 82.9547 250.05 86.8919L250.047 86.8901C249.658 87.5086 249.067 88.5466 248.657 89.3803C248.659 89.3802 248.661 89.3806 248.662 89.3804C247.825 91.0812 247.14 92.8928 246.626 94.8064C249.583 95.9599 252.3 95.8429 253.502 92.8928Z" fill="#E8C842"/>
</g>
<defs>
<clipPath id="clip0">
<rect width="119.513" height="119.513" fill="white" transform="translate(218.314) rotate(14.1985)"/>
</clipPath>
</defs>
</svg>
