<svg width="495" height="130" viewBox="0 0 495 130" fill="none" xmlns="http://www.w3.org/2000/svg">
<g clip-path="url(#clip0)">
<path d="M137.445 101.999L148.696 116.738C149.494 117.785 151.104 117.701 151.79 116.569L163.409 97.4773C163.409 97.4773 143.75 96.7759 143.877 97.1414C144.004 97.5069 137.445 101.999 137.445 101.999Z" fill="#0F81CF"/>
<path d="M169.285 55.0409C160.107 62.9444 130.655 88.9471 119.509 98.7945C118.036 100.094 118.999 102.516 120.961 102.46L137.447 102.005L148.665 116.698C149.118 117.287 149.821 117.525 150.473 117.427C151.008 117.347 147.032 103.561 147.032 103.561C147.032 103.561 166.652 109.661 175.953 112.534C178.243 113.241 180.498 111.327 180.155 108.953C178.411 96.854 174.051 66.6032 172.56 56.2635C172.331 54.7035 170.475 54.014 169.285 55.0409Z" fill="#4BB6FF"/>
<path d="M150.472 117.421C151.007 117.341 147.031 103.555 147.031 103.555L164.296 70.6144C164.416 70.3929 164.109 70.191 163.95 70.3812L137.446 101.999L148.664 116.692C149.112 117.283 149.815 117.521 150.472 117.421Z" fill="#2C9FED"/>
</g>
<path d="M3.50391 53.0747L1.35188 61.1062C0.605261 63.8926 14.5379 70.0447 32.4731 74.8505C50.4084 79.6562 65.5487 81.3009 66.2953 78.5145L68.4474 70.483L3.50391 53.0747Z" fill="#FFAC00"/>
<mask id="mask0" mask-type="alpha" maskUnits="userSpaceOnUse" x="0" y="53" width="69" height="31">
<path d="M3.50391 53.0747L1.35188 61.1062C0.605261 63.8926 14.5379 70.0447 32.4731 74.8505C50.4084 79.6562 65.5487 81.3009 66.2953 78.5145L68.4474 70.483L3.50391 53.0747Z" fill="#FFAC00"/>
</mask>
<g mask="url(#mask0)">
<path d="M6.65149 50.3418L5.11328 49.9297L0.180855 68.3378L1.71906 68.7499L6.65149 50.3418Z" fill="#F48200"/>
<path d="M10.6339 51.4087L9.0957 50.9966L4.16328 69.4046L5.70149 69.8168L10.6339 51.4087Z" fill="#F48200"/>
<path d="M15.1866 52.628L13.6484 52.2158L8.71601 70.6239L10.2542 71.036L15.1866 52.628Z" fill="#F48200"/>
<path d="M20.8663 54.15L19.3281 53.7378L14.3957 72.1459L15.9339 72.558L20.8663 54.15Z" fill="#F48200"/>
<path d="M27.1085 55.8223L25.5703 55.4102L20.6379 73.8182L22.1761 74.2304L27.1085 55.8223Z" fill="#F48200"/>
<path d="M33.9132 57.6529L32.375 57.2407L27.4426 75.6488L28.9808 76.0609L33.9132 57.6529Z" fill="#F48200"/>
<path d="M68.6339 66.9634L67.0957 66.5513L62.1633 84.9593L63.7015 85.3715L68.6339 66.9634Z" fill="#F48200"/>
<path d="M64.6515 65.8956L63.1133 65.4834L58.1809 83.8915L59.7191 84.3036L64.6515 65.8956Z" fill="#F48200"/>
<path d="M60.1027 64.6695L58.5645 64.2573L53.632 82.6654L55.1702 83.0776L60.1027 64.6695Z" fill="#F48200"/>
<path d="M54.421 63.148L52.8828 62.7358L47.9504 81.1439L49.4886 81.5561L54.421 63.148Z" fill="#F48200"/>
<path d="M48.1808 61.4761L46.6426 61.064L41.7102 79.472L43.2484 79.8842L48.1808 61.4761Z" fill="#F48200"/>
<path d="M41.3722 59.6514L39.834 59.2393L34.9016 77.6473L36.4398 78.0595L41.3722 59.6514Z" fill="#F48200"/>
</g>
<path d="M68.493 70.3395C67.7463 73.126 52.606 71.4813 34.6707 66.6755C16.7308 61.8618 2.79825 55.7097 3.54487 52.9232C4.29149 50.1368 19.4319 51.7815 37.3671 56.5872C55.307 61.401 69.2396 67.5531 68.493 70.3395Z" fill="#FFDC00"/>
<path d="M35.5366 63.4425C49.7941 67.2628 61.6326 69.3126 61.9788 68.0209C62.3249 66.7292 51.0475 62.5852 36.79 58.7649C22.5326 54.9446 10.694 52.8948 10.3479 54.1865C10.0018 55.4782 21.2792 59.6223 35.5366 63.4425Z" fill="#FFAC00"/>
<path d="M11.2768 55.1583C14.7486 55.0616 24.7769 56.9987 36.4252 60.1266C48.069 63.2465 57.7285 66.5848 60.6852 68.4108C61.4613 68.389 61.913 68.2668 61.9771 68.0273C62.3234 66.7349 51.0484 62.5921 36.7901 58.7649C22.5302 54.944 10.696 52.8879 10.3497 54.1802C10.2792 54.4181 10.6092 54.7497 11.2768 55.1583Z" fill="#F48200"/>
<path d="M9.82812 44.9858L7.6761 53.0173C6.92948 55.8037 20.8621 61.9559 38.7973 66.7616C56.7309 71.5736 71.8729 73.212 72.6196 70.4256L74.7716 62.3941L9.82812 44.9858Z" fill="#FFAC00"/>
<mask id="mask1" mask-type="alpha" maskUnits="userSpaceOnUse" x="6" y="44" width="69" height="32">
<path d="M9.82812 44.9858L7.6761 53.0173C6.92948 55.8037 20.8621 61.9559 38.7973 66.7616C56.7309 71.5736 71.8729 73.212 72.6196 70.4256L74.7716 62.3941L9.82812 44.9858Z" fill="#FFAC00"/>
</mask>
<g mask="url(#mask1)">
<path d="M12.9718 42.254L11.4336 41.8418L6.50117 60.2499L8.03938 60.662L12.9718 42.254Z" fill="#F48200"/>
<path d="M16.9542 43.3204L15.416 42.9082L10.4836 61.3163L12.0218 61.7284L16.9542 43.3204Z" fill="#F48200"/>
<path d="M21.507 44.5396L19.9688 44.1274L15.0363 62.5355L16.5745 62.9477L21.507 44.5396Z" fill="#F48200"/>
<path d="M27.1866 46.0621L25.6484 45.6499L20.716 64.058L22.2542 64.4701L27.1866 46.0621Z" fill="#F48200"/>
<path d="M33.4249 47.7339L31.8867 47.3218L26.9543 65.7298L28.4925 66.142L33.4249 47.7339Z" fill="#F48200"/>
<path d="M40.2355 49.5591L38.6973 49.147L33.7648 67.555L35.303 67.9672L40.2355 49.5591Z" fill="#F48200"/>
<path d="M74.9581 58.8687L73.4199 58.4565L68.4875 76.8646L70.0257 77.2768L74.9581 58.8687Z" fill="#F48200"/>
<path d="M70.9738 57.8003L69.4355 57.3882L64.5031 75.7962L66.0413 76.2084L70.9738 57.8003Z" fill="#F48200"/>
<path d="M66.423 56.5811L64.8848 56.1689L59.9523 74.577L61.4905 74.9892L66.423 56.5811Z" fill="#F48200"/>
<path d="M60.7413 55.0591L59.2031 54.647L54.2707 73.055L55.8089 73.4672L60.7413 55.0591Z" fill="#F48200"/>
<path d="M54.5011 53.3873L52.9629 52.9751L48.0305 71.3832L49.5687 71.7953L54.5011 53.3873Z" fill="#F48200"/>
<path d="M47.6925 51.5626L46.1543 51.1504L41.2219 69.5585L42.7601 69.9706L47.6925 51.5626Z" fill="#F48200"/>
</g>
<path d="M40.9945 58.586C58.9286 63.3914 74.0721 65.029 74.8184 62.2436C75.5647 59.4583 61.6313 53.3048 43.6972 48.4993C25.7631 43.6939 10.6196 42.0563 9.87326 44.8416C9.12693 47.627 23.0604 53.7805 40.9945 58.586Z" fill="#FFDC00"/>
<path d="M68.3052 59.9311C67.9589 61.2234 56.1167 59.1719 41.8648 55.3464C27.6048 51.5254 16.3314 47.3764 16.6777 46.084C17.024 44.7917 28.8662 46.8432 43.1181 50.6687C57.3764 54.496 68.6515 58.6387 68.3052 59.9311Z" fill="#FFAC00"/>
<path d="M17.6009 47.068C21.0728 46.9713 31.101 48.9083 42.7494 52.0362C54.3931 55.1562 64.0527 58.4944 67.0093 60.3204C67.7854 60.2987 68.2371 60.1765 68.3013 59.9369C68.6476 58.6446 57.3725 54.5018 43.1142 50.6745C28.8543 46.8536 17.0201 44.7975 16.6738 46.0899C16.6113 46.3231 16.9397 46.6611 17.6009 47.068Z" fill="#F48200"/>
<path d="M16.0762 36.8687L13.9241 44.9001C13.1775 47.6865 27.1101 53.8387 45.0454 58.6444C62.9789 63.4565 78.121 65.0948 78.8676 62.3084L81.0196 54.277L16.0762 36.8687Z" fill="#FFAC00"/>
<mask id="mask2" mask-type="alpha" maskUnits="userSpaceOnUse" x="12" y="36" width="70" height="32">
<path d="M16.0762 36.8687L13.9241 44.9001C13.1775 47.6865 27.1101 53.8387 45.0454 58.6444C62.9789 63.4565 78.121 65.0948 78.8676 62.3084L81.0196 54.277L16.0762 36.8687Z" fill="#FFAC00"/>
</mask>
<g mask="url(#mask2)">
<path d="M19.2198 34.1436L17.6816 33.7314L12.7492 52.1395L14.2874 52.5517L19.2198 34.1436Z" fill="#F48200"/>
<path d="M23.2023 35.211L21.6641 34.7988L16.7316 53.2069L18.2698 53.6191L23.2023 35.211Z" fill="#F48200"/>
<path d="M27.7531 36.4302L26.2148 36.0181L21.2824 54.4261L22.8206 54.8383L27.7531 36.4302Z" fill="#F48200"/>
<path d="M33.4366 37.9517L31.8984 37.5396L26.966 55.9476L28.5042 56.3598L33.4366 37.9517Z" fill="#F48200"/>
<path d="M39.6749 39.6241L38.1367 39.2119L33.2043 57.62L34.7425 58.0321L39.6749 39.6241Z" fill="#F48200"/>
<path d="M46.4855 41.4488L44.9473 41.0366L40.0148 59.4447L41.553 59.8568L46.4855 41.4488Z" fill="#F48200"/>
<path d="M81.2062 50.7593L79.668 50.3472L74.7355 68.7552L76.2738 69.1674L81.2062 50.7593Z" fill="#F48200"/>
<path d="M77.2199 49.6915L75.6816 49.2793L70.7492 67.6874L72.2874 68.0995L77.2199 49.6915Z" fill="#F48200"/>
<path d="M72.671 48.4717L71.1328 48.0596L66.2004 66.4676L67.7386 66.8798L72.671 48.4717Z" fill="#F48200"/>
<path d="M66.9874 46.9498L65.4492 46.5376L60.5168 64.9457L62.055 65.3578L66.9874 46.9498Z" fill="#F48200"/>
<path d="M60.7491 45.2774L59.2109 44.8652L54.2785 63.2733L55.8167 63.6855L60.7491 45.2774Z" fill="#F48200"/>
<path d="M53.9406 43.4463L52.4023 43.0342L47.4699 61.4422L49.0081 61.8544L53.9406 43.4463Z" fill="#F48200"/>
</g>
<path d="M81.0665 54.1343C80.3198 56.9207 65.1795 55.276 47.2442 50.4703C29.3107 45.6582 15.3781 39.5061 16.123 36.726C16.8696 33.9395 32.01 35.5842 49.9452 40.39C67.8788 45.202 81.8114 51.3541 81.0665 54.1343Z" fill="#FFDC00"/>
<path d="M74.5513 51.8212C74.205 53.1136 62.3628 51.0621 48.1109 47.2365C33.8509 43.4156 22.5775 39.2665 22.9238 37.9742C23.2701 36.6818 35.1123 38.7333 49.3642 42.5588C63.6225 46.3861 74.8976 50.5289 74.5513 51.8212Z" fill="#FFAC00"/>
<path d="M23.847 38.9586C27.3189 38.8619 37.3471 40.7989 48.9955 43.9269C60.6392 47.0468 70.2988 50.3851 73.2554 52.2111C74.0315 52.1893 74.4832 52.0671 74.5474 51.8275C74.8937 50.5352 63.6186 46.3924 49.3603 42.5652C35.1004 38.7442 23.2662 36.6881 22.9199 37.9805C22.8574 38.2137 23.1858 38.5517 23.847 38.9586Z" fill="#F48200"/>
<path d="M10.9492 25.313L8.7972 33.3445C8.05057 36.1309 21.9832 42.283 39.9184 47.0888C57.852 51.9008 72.994 53.5392 73.7407 50.7528L75.8927 42.7213L10.9492 25.313Z" fill="#FFAC00"/>
<mask id="mask3" mask-type="alpha" maskUnits="userSpaceOnUse" x="7" y="25" width="69" height="31">
<path d="M10.9492 25.313L8.7972 33.3445C8.05057 36.1309 21.9832 42.283 39.9184 47.0888C57.852 51.9008 72.994 53.5392 73.7407 50.7528L75.8927 42.7213L10.9492 25.313Z" fill="#FFAC00"/>
</mask>
<g mask="url(#mask3)">
<path d="M14.0948 22.5884L12.5566 22.1763L7.62422 40.5843L9.16242 40.9965L14.0948 22.5884Z" fill="#F48200"/>
<path d="M18.0773 23.6543L16.5391 23.2422L11.6066 41.6502L13.1448 42.0624L18.0773 23.6543Z" fill="#F48200"/>
<path d="M22.6261 24.8736L21.0879 24.4614L16.1555 42.8695L17.6937 43.2816L22.6261 24.8736Z" fill="#F48200"/>
<path d="M28.3116 26.396L26.7734 25.9839L21.841 44.3919L23.3792 44.8041L28.3116 26.396Z" fill="#F48200"/>
<path d="M34.5499 28.0679L33.0117 27.6558L28.0793 46.0638L29.6175 46.476L34.5499 28.0679Z" fill="#F48200"/>
<path d="M41.3566 29.8926L39.8184 29.4805L34.8859 47.8885L36.4241 48.3007L41.3566 29.8926Z" fill="#F48200"/>
<path d="M76.0792 39.2032L74.541 38.791L69.6086 57.1991L71.1468 57.6112L76.0792 39.2032Z" fill="#F48200"/>
<path d="M72.0948 38.1353L70.5566 37.7231L65.6242 56.1312L67.1624 56.5434L72.0948 38.1353Z" fill="#F48200"/>
<path d="M67.5441 36.9151L66.0059 36.5029L61.0734 54.911L62.6116 55.3232L67.5441 36.9151Z" fill="#F48200"/>
<path d="M61.8644 35.3936L60.3262 34.9814L55.3937 53.3895L56.932 53.8017L61.8644 35.3936Z" fill="#F48200"/>
<path d="M55.6241 33.7217L54.0859 33.3096L49.1535 51.7176L50.6917 52.1298L55.6241 33.7217Z" fill="#F48200"/>
<path d="M48.8175 31.8907L47.2793 31.4785L42.3469 49.8866L43.8851 50.2987L48.8175 31.8907Z" fill="#F48200"/>
</g>
<path d="M75.9395 42.5776C75.1929 45.3641 60.0525 43.7194 42.1173 38.9136C24.1837 34.1016 10.2511 27.9494 10.996 25.1693C11.7427 22.3829 26.883 24.0276 44.8183 28.8333C62.7518 33.6454 76.6844 39.7975 75.9395 42.5776Z" fill="#FFDC00"/>
<path d="M42.9781 35.6774C57.2355 39.4977 69.074 41.5475 69.4202 40.2558C69.7663 38.9641 58.4889 34.82 44.2314 30.9997C29.974 27.1795 18.1354 25.1297 17.7893 26.4214C17.4432 27.7131 28.7206 31.8571 42.9781 35.6774Z" fill="#FFAC00"/>
<path d="M18.7201 27.402C22.192 27.3053 32.2203 29.2423 43.8686 32.3702C55.5123 35.4902 65.1719 38.8284 68.1285 40.6545C68.9046 40.6327 69.3563 40.5105 69.4205 40.2709C69.7668 38.9786 58.4917 34.8358 44.2335 31.0085C29.9735 27.1876 18.1393 25.1315 17.793 26.4239C17.7242 26.6554 18.0526 26.9934 18.7201 27.402Z" fill="#F48200"/>
<path d="M22.1094 18.519L19.9574 26.5505C19.2107 29.3369 33.1433 35.4891 51.0786 40.2948C69.0138 45.1005 84.1542 46.7452 84.9008 43.9588L87.0528 35.9273L22.1094 18.519Z" fill="#FFAC00"/>
<mask id="mask4" mask-type="alpha" maskUnits="userSpaceOnUse" x="18" y="18" width="70" height="31">
<path d="M22.1094 18.519L19.9574 26.5505C19.2107 29.3369 33.1433 35.4891 51.0786 40.2948C69.0138 45.1005 84.1542 46.7452 84.9008 43.9588L87.0528 35.9273L22.1094 18.519Z" fill="#FFAC00"/>
</mask>
<g mask="url(#mask4)">
<path d="M25.2472 15.7847L23.709 15.3726L18.7766 33.7806L20.3148 34.1928L25.2472 15.7847Z" fill="#F48200"/>
<path d="M29.2355 16.8609L27.6973 16.4487L22.7648 34.8568L24.303 35.269L29.2355 16.8609Z" fill="#F48200"/>
<path d="M33.7882 18.0796L32.25 17.6675L27.3176 36.0755L28.8558 36.4877L33.7882 18.0796Z" fill="#F48200"/>
<path d="M39.4659 19.6021L37.9277 19.1899L32.9953 37.598L34.5335 38.0102L39.4659 19.6021Z" fill="#F48200"/>
<path d="M45.7101 21.275L44.1719 20.8628L39.2394 39.2709L40.7777 39.683L45.7101 21.275Z" fill="#F48200"/>
<path d="M52.5167 23.0987L50.9785 22.6865L46.0461 41.0946L47.5843 41.5067L52.5167 23.0987Z" fill="#F48200"/>
<path d="M87.2374 32.4087L85.6992 31.9966L80.7668 50.4046L82.305 50.8168L87.2374 32.4087Z" fill="#F48200"/>
<path d="M83.2452 31.3399L81.707 30.9277L76.7746 49.3358L78.3128 49.748L83.2452 31.3399Z" fill="#F48200"/>
<path d="M78.7023 30.1221L77.1641 29.71L72.2316 48.118L73.7698 48.5302L78.7023 30.1221Z" fill="#F48200"/>
<path d="M73.0206 28.5992L71.4824 28.187L66.55 46.5951L68.0882 47.0072L73.0206 28.5992Z" fill="#F48200"/>
<path d="M66.7765 26.9258L65.2383 26.5137L60.3059 44.9217L61.8441 45.3339L66.7765 26.9258Z" fill="#F48200"/>
<path d="M59.9757 25.0967L58.4375 24.6846L53.5051 43.0926L55.0433 43.5048L59.9757 25.0967Z" fill="#F48200"/>
</g>
<path d="M87.0977 35.7837C86.3511 38.5701 71.2107 36.9254 53.2755 32.1197C35.3419 27.3076 21.4093 21.1555 22.1542 18.3754C22.9009 15.589 38.0412 17.2336 55.9765 22.0394C73.9037 26.8497 87.8426 33.0036 87.0977 35.7837Z" fill="#FFDC00"/>
<path d="M54.1382 28.8844C68.3957 32.7047 80.2342 34.7545 80.5803 33.4628C80.9264 32.1711 69.649 28.027 55.3916 24.2068C41.1341 20.3865 29.2956 18.3367 28.9495 19.6284C28.6034 20.9201 39.8807 25.0642 54.1382 28.8844Z" fill="#FFAC00"/>
<path d="M29.8829 20.6082C33.3564 20.5052 43.383 22.4485 55.0267 25.5685C66.6705 28.6884 76.33 32.0267 79.2867 33.8527C80.0628 33.8309 80.5144 33.7087 80.5786 33.4691C80.9249 32.1768 69.6498 28.034 55.3916 24.2068C41.1316 20.3858 29.2975 18.3297 28.9512 19.6221C28.887 19.8616 29.217 20.1933 29.8829 20.6082Z" fill="#F48200"/>
<g clip-path="url(#clip1)">
<path d="M245.996 75.998C264.773 75.998 279.994 60.7765 279.994 42C279.994 23.2234 264.773 8.00195 245.996 8.00195C227.219 8.00195 211.998 23.2234 211.998 42C211.998 60.7765 227.219 75.998 245.996 75.998Z" fill="#F8587E"/>
<g opacity="0.95">
<path d="M252.612 24.621C245.745 21.1689 237.597 23.0316 232.852 28.6663L229.15 26.8036L230.823 31.7186L232.639 37.0534L237.664 35.4373L242.946 33.7379L240.087 32.3017C243.529 29.3294 248.947 28.6929 253.719 31.0921C258.224 33.3547 260.899 37.6899 260.906 41.9884C260.906 41.9884 260.906 41.9917 260.906 41.995C260.913 42.0883 260.976 42.9447 261.186 42.7581C261.186 42.7548 261.186 42.7548 261.186 42.7548V42.7514C262.802 35.6239 259.44 28.0498 252.612 24.621Z" fill="white"/>
<path d="M239.383 59.3794C246.25 62.8316 254.398 60.9689 259.143 55.3342L262.845 57.1969L261.172 52.2819L259.356 46.947L254.331 48.5632L249.049 50.2626L251.908 51.6987C248.466 54.6711 243.048 55.3075 238.276 52.9083C233.771 50.6458 231.096 46.3106 231.089 42.0121C231.089 42.0121 231.089 42.0087 231.089 42.0054C231.082 41.9121 231.019 41.0557 230.809 41.2423C230.809 41.2457 230.809 41.2457 230.809 41.2457V41.249C229.196 48.3765 232.558 55.9473 239.383 59.3794Z" fill="white"/>
</g>
</g>
<g clip-path="url(#clip2)">
<path d="M366.79 64.6768C365 63.1897 362.265 61.2262 361.944 66.5491C361.835 68.359 361.202 69.8292 360.651 71.0188C359.371 67.2963 356.554 63.6475 354.046 61.2707C353.107 60.3815 349.718 56.7998 348.262 50.2309C348.045 49.2506 346.803 48.9462 346.158 49.7158C339.993 57.0703 337.332 66.3889 338.543 76.3038C338.543 76.3038 335.273 74.2341 333.051 69.8551C332.453 68.6759 330.761 68.6669 330.191 69.86C330.081 70.0891 329.982 70.3171 329.894 70.5373C325.777 80.8852 324.761 92.906 328.662 103.426C335.188 121.045 362.6 122.469 375.18 109.111C387.488 96.0428 380.243 75.8468 366.79 64.6768Z" fill="#ED694A"/>
<path d="M364.337 78.5456C363.015 77.4472 360.994 75.9968 360.757 79.9285C360.677 81.2651 360.209 82.3513 359.802 83.2299C358.857 80.4803 356.777 77.7852 354.924 76.0298C354.231 75.373 351.728 72.7275 350.652 67.8754C350.491 67.1512 349.575 66.9265 349.098 67.4949C344.544 72.927 342.579 79.8102 343.473 87.1333C343.473 87.1333 341.058 85.6046 339.417 82.3702C338.975 81.4992 337.725 81.4926 337.304 82.3739C337.223 82.543 337.15 82.7116 337.085 82.8742C334.044 90.5173 333.294 99.3961 336.175 107.167C340.995 120.181 361.242 121.232 370.534 111.366C379.625 101.713 374.273 86.7961 364.337 78.5456Z" fill="#F4A32C"/>
<path d="M340.04 107.71C337.388 100.092 337.874 91.4612 340.384 83.986C340.049 83.5046 339.72 82.9667 339.418 82.3705C338.976 81.4996 337.726 81.4928 337.305 82.3741C337.224 82.5432 337.151 82.7118 337.086 82.8745C334.045 90.5177 333.295 99.3964 336.175 107.167C338.417 113.22 343.997 116.683 350.258 117.666C345.692 116.108 341.812 112.803 340.04 107.71Z" fill="#E89528"/>
<path d="M362.1 91.2069C361.205 90.4634 359.837 89.4814 359.677 92.1431C359.623 93.0481 359.306 93.7831 359.03 94.3779C358.39 92.5165 356.982 90.6922 355.728 89.5039C355.259 89.0593 353.564 87.2685 352.836 83.9839C352.727 83.4937 352.107 83.3415 351.784 83.7264C348.701 87.4037 347.371 92.0631 347.976 97.0203C347.976 97.0203 346.341 95.9854 345.231 93.796C344.932 93.2065 344.086 93.202 343.801 93.7985C343.746 93.9129 343.696 94.0271 343.652 94.1372C341.594 99.3111 341.086 105.321 343.036 110.582C346.299 119.391 360.005 120.103 366.295 113.424C368.449 111.137 369.573 108.176 369.461 105.086C369.288 100.406 366.747 95.0653 362.1 91.2069Z" fill="#F4D44E"/>
<path d="M360.022 102.956C359.524 102.542 358.762 101.995 358.672 103.477C358.642 103.982 358.466 104.391 358.312 104.723C357.955 103.686 357.171 102.669 356.472 102.007C356.211 101.759 355.266 100.762 354.861 98.9319C354.8 98.6587 354.454 98.5741 354.275 98.7883C352.557 100.837 351.816 103.433 352.153 106.195C352.153 106.195 351.243 105.618 350.624 104.398C350.457 104.07 349.986 104.067 349.827 104.4C349.796 104.464 349.769 104.527 349.745 104.588C348.598 107.471 348.315 110.82 349.401 113.75C351.877 120.434 364.408 118.506 364.123 110.688C364.027 108.081 362.611 105.105 360.022 102.956Z" fill="#EAE9E8"/>
<path d="M352.505 114.719C351.462 112.108 351.792 109.102 352.977 106.501C353.002 106.446 353.031 106.389 353.062 106.331C353.225 106.031 353.696 106.026 353.857 106.318C354.458 107.403 355.359 107.907 355.359 107.907C355.114 105.877 355.596 103.937 356.742 102.278C356.384 101.901 355.324 101.021 354.861 98.9324C354.8 98.6592 354.454 98.5746 354.275 98.7888C352.557 100.838 351.816 103.433 352.153 106.195C352.153 106.195 351.243 105.619 350.624 104.399C350.457 104.07 349.986 104.068 349.827 104.4C349.796 104.464 349.769 104.528 349.745 104.589C348.598 107.472 348.315 110.82 349.401 113.751C350.407 116.467 353.196 117.801 356.08 117.82C354.452 117.28 353.117 116.254 352.505 114.719Z" fill="#F7E7A1"/>
<path d="M337.304 54.4736C340.109 51.4742 339.445 46.6719 335.945 44.5415C333.14 47.5408 333.804 52.3432 337.304 54.4736Z" fill="#D8553A"/>
<path d="M377.958 69.9001C380.763 66.9007 380.098 62.0985 376.598 59.9681C375.316 61.3388 374.458 67.7697 377.958 69.9001Z" fill="#D8553A"/>
<path d="M322.32 79.5072C324.341 77.3454 323.863 73.8846 321.34 72.349C320.416 73.3369 319.797 77.9718 322.32 79.5072Z" fill="#D8553A"/>
<path d="M359.612 58.712C361.633 56.5503 361.155 53.0894 358.632 51.5538C356.61 53.7154 357.089 57.1766 359.612 58.712Z" fill="#D8553A"/>
<path d="M346.215 85.5622C345.893 79.3235 347.498 73.5174 350.88 68.7956C350.798 68.498 350.722 68.1916 350.652 67.8754C350.492 67.1512 349.575 66.9265 349.098 67.495C345.49 71.7994 343.51 77.0156 343.287 82.6393L343.285 82.6391C343.269 83.0562 343.26 83.6617 343.268 84.1355C343.268 84.1359 343.268 84.1362 343.268 84.1366C343.283 85.1255 343.35 86.1251 343.473 87.1335C343.586 87.1399 346.253 88.0794 346.215 85.5622Z" fill="#E89528"/>
<path d="M346.852 111.372C345.085 106.45 345.259 100.92 346.742 95.9463C346.252 95.4256 345.695 94.7122 345.231 93.7956C344.931 93.2061 344.085 93.2016 343.8 93.7981C343.746 93.9125 343.696 94.0267 343.652 94.1368C341.594 99.3107 341.085 105.321 343.036 110.581C344.564 114.707 348.382 117.057 352.657 117.703C350.048 116.442 347.917 114.34 346.852 111.372Z" fill="#E8C842"/>
<path d="M351.548 94.2751C351.555 91.683 352.212 88.7382 353.529 86.1712C353.26 85.5341 353.017 84.8058 352.835 83.984C352.726 83.4937 352.106 83.3415 351.783 83.7265C349.863 86.0178 348.625 88.691 348.109 91.5792L348.107 91.579C348.025 92.0328 347.925 92.7799 347.882 93.3646C347.883 93.3642 347.884 93.364 347.885 93.3635C347.797 94.5568 347.824 95.7789 347.976 97.0202C349.979 96.9964 351.541 96.2858 351.548 94.2751Z" fill="#E8C842"/>
</g>
<g clip-path="url(#clip3)">
<path d="M481.495 57.8309C491.695 43.3975 488.264 23.428 473.83 13.2277C459.397 3.02742 439.427 6.45903 429.227 20.8924C419.027 35.3258 422.458 55.2953 436.892 65.4956C451.325 75.6959 471.295 72.2642 481.495 57.8309Z" fill="#4372D2"/>
<path d="M474.084 44.3708C474.358 43.3775 474.123 42.3631 473.531 41.6093C475.083 41.1855 476.249 39.5863 475.715 37.5402C475.472 36.6061 474.722 35.8834 473.792 35.6265L472.444 35.2546L472.446 35.2477L466.106 33.4906C464.28 32.9864 463.232 32.503 464.102 30.8144C464.503 30.0358 465.283 28.7262 465.65 27.153C466.312 24.3232 465.256 21.2138 463.784 20.8074C462.29 20.3953 461.564 21.4283 461.017 23.3029C461.017 23.3029 460.657 24.9602 459.826 26.6968C458.532 29.382 454.468 31.2429 451.614 31.913C451.206 32.0097 450.889 32.3184 450.778 32.7213L446.151 49.4887C445.984 50.093 446.336 50.7134 446.94 50.8802L466.846 56.4335C468.52 56.8955 470.248 55.9148 470.71 54.2408C470.984 53.2476 470.746 52.2401 470.164 51.4813C471.198 51.1987 472.062 50.3981 472.367 49.2937C472.637 48.3143 472.411 47.3177 471.841 46.5696C472.885 46.3048 473.774 45.496 474.084 44.3708Z" fill="white"/>
<path d="M447.464 31.0514L438.164 28.4847C437.525 28.3083 436.86 28.6855 436.684 29.3245L432.185 45.6266C432.008 46.2656 432.386 46.9303 433.025 47.1067L442.325 49.6735C442.964 49.8498 443.629 49.4726 443.805 48.8336L448.304 32.5315C448.483 31.8856 448.103 31.2278 447.464 31.0514ZM439.553 45.6868C438.809 46.1092 437.864 45.8485 437.442 45.1041C437.019 44.3596 437.28 43.4149 438.025 42.9925C438.769 42.5701 439.714 42.8308 440.136 43.5752C440.559 44.3197 440.298 45.2644 439.553 45.6868Z" fill="white"/>
</g>
<defs>
<clipPath id="clip0">
<rect width="65.4829" height="57.2975" fill="white" transform="translate(110 75.5488) rotate(-19.2127)"/>
</clipPath>
<clipPath id="clip1">
<rect width="68" height="68" fill="white" transform="translate(212 8)"/>
</clipPath>
<clipPath id="clip2">
<rect width="75.43" height="75.43" fill="white" transform="translate(309 48.2295) rotate(-7.79434)"/>
</clipPath>
<clipPath id="clip3">
<rect width="64" height="64" fill="white" transform="translate(433.025) rotate(15.4283)"/>
</clipPath>
</defs>
</svg>
