<svg width="51" height="52" viewBox="0 0 51 52" fill="none" xmlns="http://www.w3.org/2000/svg">
<circle cx="25.4468" cy="26.5533" r="25.4468" fill="#50CA7A"/>
<path d="M35.5989 46.0616C34.7857 45.8456 33.9975 45.5588 33.2307 45.211C33.043 45.1256 32.9714 45.0188 32.9488 44.8101C32.4388 40.1049 31.8365 35.4131 30.7615 30.7958C30.7517 30.7305 30.7401 30.6652 30.7248 30.6005C30.4326 29.3606 30.0932 28.1323 29.5795 26.9614C29.4475 26.6605 29.2793 26.3762 29.1338 26.0815C29.0598 25.932 28.839 25.8063 28.8996 25.6568C28.9919 25.4304 29.0934 25.193 29.3001 25.0191C30.0381 24.3986 30.5824 23.6346 30.9297 22.7346C31.1822 22.0792 31.354 21.419 31.3278 20.6959C31.2843 19.5188 31.321 18.3387 31.3112 17.1598C31.3094 16.9579 31.373 16.8273 31.5277 16.7022C33.5694 15.0498 35.6607 13.4621 37.7874 11.9207C37.9287 11.8182 38.0822 11.756 38.2491 11.7145C38.7829 11.5821 39.2385 11.2776 39.724 11.0396C39.7766 11.014 39.8554 10.9231 39.8481 10.9121C39.6714 10.6473 39.8909 10.3794 39.8383 10.0999C39.7931 9.85949 39.6482 9.62213 39.7203 9.35303C39.7656 9.18584 39.6518 9.04427 39.5002 9.04427C39.4647 9.04305 39.4274 9.04977 39.3889 9.06563C38.5744 9.40551 37.7251 9.7045 37.4083 10.6692C37.3221 10.9316 37.0738 11.0762 36.8519 11.2227C36.1835 11.6638 35.4589 11.9976 34.7209 12.3015C32.9531 13.0294 31.1816 13.7495 29.4083 14.4634C29.1533 14.5659 28.8757 14.6092 28.6116 14.6898C28.5694 14.7026 28.5327 14.7087 28.4997 14.7087C28.3988 14.7063 28.3358 14.6428 28.2777 14.5195C27.857 13.6268 27.4241 12.7396 26.9924 11.8518C26.9398 11.7438 26.9233 11.6309 26.9074 11.5149C26.7998 10.7498 26.1498 10.1853 25.3891 10.192C25.3878 10.192 25.3872 10.192 25.386 10.192C25.3842 10.192 25.383 10.192 25.3811 10.192C24.6168 10.1994 23.9808 10.7662 23.8799 11.5357C23.8647 11.6528 23.8451 11.7645 23.7962 11.8731C23.4024 12.7433 23.0055 13.6128 22.6215 14.4872C22.5689 14.6068 22.5114 14.6599 22.4203 14.6587C22.3898 14.6574 22.3549 14.6501 22.3158 14.6373C21.9018 14.5024 21.4664 14.4158 21.072 14.2395C19.5287 13.5499 17.9296 12.9995 16.3801 12.3253C16.3031 12.2917 16.2297 12.2478 16.1551 12.2087C15.4611 11.9354 14.7976 11.6028 14.1837 11.1781C13.9611 11.0237 13.7942 10.8291 13.6921 10.5691C13.5325 10.1621 13.2598 9.83264 12.8758 9.62274C12.6972 9.52511 12.644 9.40612 12.6428 9.22062C12.6379 8.3096 12.4887 7.4474 11.7824 6.78229C11.7598 6.76093 11.7488 6.72798 11.7292 6.70358C11.5788 6.51198 11.558 6.31 11.6338 6.0763C11.8411 5.44109 12.0227 4.79672 12.2349 4.16334C12.4092 3.64285 12.3823 3.14249 12.1719 2.64213C11.8803 1.94773 11.5917 1.25151 11.3012 0.556496C11.2688 0.478391 11.2413 0.394184 11.1496 0.363065C10.8132 0.250789 10.4757 0.138514 10.0611 0C10.1516 0.194041 10.2048 0.306317 10.2562 0.419202C10.5925 1.15265 10.9221 1.88855 11.2663 2.61773C11.4192 2.94174 11.448 3.25965 11.3428 3.60319C11.1691 4.17128 11.0542 4.76072 10.8383 5.31173C10.7643 5.49967 10.7185 5.67967 10.6995 5.85236C10.6964 5.85419 10.694 5.85663 10.6909 5.85846C10.6451 6.29597 10.7814 6.68832 11.1404 7.05749C11.6192 7.5493 11.7867 8.16133 11.8002 8.8301C11.8032 8.97593 11.8252 9.08638 11.6198 9.1175C11.4663 9.14129 11.4107 9.28225 11.4632 9.44273C11.481 9.49704 11.5599 9.55562 11.4883 9.6087C11.2352 9.79786 11.4846 10.1152 11.2975 10.3257C11.2566 10.3714 11.3122 10.4654 11.3727 10.5191C11.4082 10.5502 11.4767 10.5752 11.4223 10.6405C11.1263 10.9963 11.4382 11.0884 11.6724 11.208C11.8619 11.305 12.0325 11.3783 12.0521 11.6522C12.2105 13.8532 12.3866 16.0536 12.5572 18.2539C12.7584 20.9522 12.9601 23.6511 13.1607 26.3493C13.2818 27.9792 13.412 29.6084 13.5141 31.2388C13.53 31.4914 13.6511 31.5164 13.7838 31.5146C13.8211 31.5146 13.859 31.5116 13.8963 31.511C13.9177 31.511 13.9391 31.511 13.9593 31.5134C13.9789 31.5158 13.996 31.5164 14.0119 31.5164C14.2363 31.5195 14.1293 31.3133 14.1226 31.2065C13.8547 26.9595 13.5796 22.7126 13.3069 18.4663C13.2689 17.8738 13.2384 17.2807 13.2047 16.6882C13.1283 15.6728 13.0513 14.658 12.9748 13.6427C12.9351 13.1136 12.8959 12.5846 12.8605 12.055C12.8476 11.867 12.866 11.781 12.9485 11.7737C12.9981 11.7724 13.0696 11.7962 13.1693 11.842C13.2555 11.8817 13.335 11.9378 13.412 11.9933C14.0223 12.4357 14.6454 12.8604 15.222 13.3474C16.3276 14.1211 17.3787 14.9668 18.4445 15.7924C18.8389 16.0981 19.2186 16.4233 19.6143 16.7278C19.7641 16.8431 19.8179 16.9707 19.8167 17.1586C19.8087 18.3046 19.8271 19.4511 19.8093 20.597C19.7836 22.2916 20.4575 23.6785 21.6431 24.8446C21.8523 25.0502 21.9844 25.3004 22.1507 25.5305C22.1984 25.597 22.2088 25.6531 22.1543 25.7282C21.2689 26.9504 20.8825 28.3794 20.4991 29.8018C19.6045 33.1158 19.0688 36.4999 18.5809 39.8926C18.4555 40.7639 18.3253 41.6353 18.2335 42.5109C18.2011 42.819 18.0972 42.8892 17.8281 42.7952C17.7682 42.7745 17.7071 42.7562 17.6465 42.7373C17.5627 42.7275 17.4778 42.7232 17.3946 42.708C16.3166 42.5048 15.2312 42.3663 14.133 42.3364C12.7406 42.2985 11.4253 42.5853 10.217 43.2834C9.6123 43.633 8.98981 43.7374 8.31535 43.5769C8.13985 43.5348 7.96252 43.4903 7.78336 43.4738C7.38651 43.4384 6.97988 43.4433 6.63867 43.6007C11.3079 48.758 18.0629 52 25.5768 52C31.3437 52 36.6635 50.0907 40.9365 46.8713C39.1418 46.7182 37.352 46.5272 35.5989 46.0616Z" fill="#131B2F"/>
</svg>
