<svg width="1240" height="361" viewBox="0 0 1240 361" fill="none" xmlns="http://www.w3.org/2000/svg">
<circle cx="176.422" cy="183.912" r="176.422" fill="#47BC70"/>
<path d="M245.796 319.134C240.169 317.638 234.716 315.652 229.41 313.244C228.112 312.652 227.617 311.913 227.46 310.467C223.932 277.883 219.764 245.392 212.327 213.416C212.259 212.964 212.179 212.512 212.073 212.064C210.051 203.477 207.703 194.971 204.149 186.862C203.235 184.779 202.072 182.809 201.065 180.768C200.553 179.733 199.026 178.863 199.444 177.827C200.083 176.26 200.786 174.616 202.216 173.411C207.322 169.114 211.087 163.823 213.49 157.591C215.238 153.052 216.426 148.48 216.245 143.473C215.944 135.321 216.198 127.149 216.13 118.985C216.118 117.586 216.558 116.682 217.628 115.815C231.754 104.372 246.223 93.377 260.938 82.7029C261.915 81.993 262.977 81.562 264.132 81.2746C267.825 80.3577 270.977 78.249 274.336 76.601C274.7 76.4235 275.246 75.7939 275.195 75.7178C273.972 73.8839 275.491 72.0288 275.127 70.0935C274.814 68.4285 273.812 66.7847 274.311 64.9212C274.624 63.7634 273.837 62.783 272.788 62.783C272.542 62.7746 272.284 62.8211 272.018 62.9309C266.383 65.2846 260.506 67.3552 258.315 74.036C257.718 75.8531 256 76.8546 254.465 77.8687C249.841 80.9239 244.827 83.2353 239.721 85.3397C227.49 90.381 215.233 95.3673 202.964 100.311C201.2 101.021 199.279 101.321 197.452 101.879C197.16 101.968 196.906 102.01 196.678 102.01C195.979 101.993 195.544 101.554 195.142 100.7C192.231 94.5179 189.236 88.3738 186.249 82.2254C185.885 81.4775 185.771 80.6957 185.661 79.8928C184.916 74.5938 180.419 70.6851 175.156 70.7315C175.148 70.7315 175.143 70.7315 175.135 70.7315C175.122 70.7315 175.114 70.7315 175.101 70.7315C169.813 70.7822 165.413 74.7079 164.715 80.0365C164.609 80.8478 164.473 81.6211 164.135 82.3733C161.41 88.3991 158.665 94.4207 156.008 100.476C155.644 101.304 155.246 101.672 154.616 101.664C154.404 101.655 154.163 101.604 153.892 101.516C151.028 100.582 148.016 99.9817 145.287 98.7605C134.609 93.9855 123.546 90.1739 112.825 85.5045C112.292 85.2721 111.784 84.9679 111.268 84.6974C106.466 82.8043 101.876 80.5013 97.6284 77.5602C96.0884 76.4911 94.9334 75.1432 94.2269 73.343C93.1227 70.5245 91.2358 68.2426 88.5789 66.789C87.3436 66.1129 86.9755 65.2889 86.967 64.0042C86.9332 57.6953 85.9009 51.7244 81.0144 47.1184C80.8579 46.9705 80.7817 46.7423 80.6464 46.5733C79.6056 45.2464 79.4618 43.8477 79.9864 42.2293C81.4206 37.8303 82.6771 33.368 84.1451 28.9818C85.3509 25.3773 85.1647 21.9122 83.7094 18.4471C81.6913 13.6383 79.6945 8.81678 77.6849 4.00373C77.4606 3.46284 77.2703 2.8797 76.6357 2.66419C74.3088 1.88666 71.9734 1.10913 69.105 0.149902C69.7312 1.49367 70.0992 2.2712 70.4546 3.05295C72.7815 8.13222 75.0618 13.2284 77.4437 18.2781C78.5014 20.5219 78.7002 22.7235 77.9726 25.1026C76.771 29.0367 75.9757 33.1187 74.4822 36.9345C73.9703 38.236 73.653 39.4826 73.5219 40.6785C73.5007 40.6911 73.4838 40.708 73.4626 40.7207C73.1453 43.7505 74.0888 46.4677 76.5722 49.0242C79.8848 52.4301 81.044 56.6685 81.1371 61.2998C81.1583 62.3097 81.3106 63.0746 79.8891 63.2901C78.8272 63.4549 78.4422 64.431 78.806 65.5424C78.9287 65.9185 79.4745 66.3242 78.9795 66.6918C77.228 68.0017 78.9541 70.1991 77.6595 71.657C77.376 71.9739 77.761 72.6246 78.1799 72.9965C78.4252 73.212 78.8991 73.3853 78.5226 73.8374C76.4749 76.301 78.6325 76.9391 80.2529 77.7673C81.5644 78.4392 82.7448 78.9463 82.8802 80.8436C83.9759 96.0857 85.1944 111.323 86.3747 126.561C87.7666 145.247 89.1628 163.938 90.5504 182.623C91.3881 193.91 92.2892 205.193 92.9958 216.484C93.1058 218.233 93.9435 218.407 94.8615 218.394C95.1196 218.394 95.3819 218.373 95.64 218.369C95.788 218.369 95.9361 218.369 96.0757 218.385C96.2111 218.402 96.3296 218.407 96.4396 218.407C97.9922 218.428 97.2519 216.999 97.2053 216.26C95.3523 186.849 93.4485 157.438 91.5616 128.032C91.2993 123.929 91.0877 119.821 90.855 115.718C90.3262 108.687 89.7931 101.659 89.2643 94.6278C88.9893 90.9641 88.7185 87.3005 88.4732 83.6326C88.3843 82.331 88.5112 81.7352 89.0824 81.6845C89.4251 81.6761 89.9201 81.8409 90.6097 82.1578C91.2062 82.4325 91.7562 82.8212 92.2892 83.2058C96.5115 86.2694 100.823 89.2105 104.812 92.5826C112.461 97.9407 119.734 103.798 127.108 109.515C129.837 111.632 132.464 113.884 135.201 115.993C136.238 116.792 136.61 117.675 136.602 118.976C136.547 126.912 136.674 134.852 136.551 142.788C136.373 154.523 141.035 164.128 149.239 172.203C150.686 173.627 151.599 175.36 152.75 176.953C153.08 177.413 153.152 177.802 152.776 178.322C146.65 186.786 143.976 196.682 141.323 206.532C135.134 229.482 131.427 252.918 128.051 276.413C127.184 282.447 126.283 288.481 125.648 294.545C125.424 296.679 124.705 297.165 122.843 296.514C122.429 296.371 122.006 296.244 121.587 296.113C121.007 296.045 120.419 296.016 119.844 295.91C112.385 294.503 104.876 293.544 97.2772 293.336C87.6439 293.074 78.5437 295.061 70.1838 299.895C65.9997 302.316 61.6928 303.039 57.0264 301.927C55.8122 301.636 54.5852 301.327 53.3457 301.213C50.5999 300.968 47.7865 301.002 45.4258 302.092C77.7314 337.808 124.468 360.259 176.455 360.259C216.355 360.259 253.162 347.036 282.726 324.742C270.309 323.681 257.925 322.358 245.796 319.134Z" fill="#131B2F"/>
<path d="M482.806 108.477C490.044 108.477 496.596 110.189 502.464 113.612C508.43 116.937 513.125 121.729 516.548 127.988C520.069 134.15 521.829 141.338 521.829 149.553C521.829 157.769 520.069 165.006 516.548 171.265C513.125 177.427 508.43 182.219 502.464 185.642C496.596 188.967 490.044 190.63 482.806 190.63C473.515 190.63 466.131 187.842 460.655 182.268V217.77H432.781V109.797H459.334V117.719C464.518 111.558 472.342 108.477 482.806 108.477ZM476.938 168.478C481.828 168.478 485.838 166.815 488.968 163.49C492.098 160.067 493.662 155.421 493.662 149.553C493.662 143.685 492.098 139.089 488.968 135.763C485.838 132.34 481.828 130.629 476.938 130.629C472.048 130.629 468.038 132.34 464.909 135.763C461.779 139.089 460.214 143.685 460.214 149.553C460.214 155.421 461.779 160.067 464.909 163.49C468.038 166.815 472.048 168.478 476.938 168.478Z" fill="#131B2F"/>
<path d="M561.338 119.333C564.174 115.714 567.841 113.025 572.34 111.264C576.937 109.406 582.169 108.477 588.037 108.477V133.563C585.494 133.27 583.392 133.123 581.729 133.123C575.763 133.123 571.069 134.737 567.646 137.964C564.32 141.191 562.658 146.13 562.658 152.781V189.309H534.785V109.797H561.338V119.333Z" fill="#131B2F"/>
<path d="M638.726 190.63C630.217 190.63 622.54 188.869 615.694 185.349C608.848 181.828 603.469 176.938 599.557 170.678C595.742 164.419 593.835 157.329 593.835 149.407C593.835 141.583 595.742 134.541 599.557 128.282C603.469 122.022 608.799 117.181 615.547 113.758C622.393 110.237 630.119 108.477 638.726 108.477C647.332 108.477 655.059 110.237 661.905 113.758C668.751 117.181 674.081 122.022 677.895 128.282C681.709 134.443 683.617 141.485 683.617 149.407C683.617 157.329 681.709 164.419 677.895 170.678C674.081 176.938 668.751 181.828 661.905 185.349C655.059 188.869 647.332 190.63 638.726 190.63ZM638.726 168.478C643.616 168.478 647.626 166.815 650.755 163.49C653.885 160.067 655.45 155.373 655.45 149.407C655.45 143.539 653.885 138.942 650.755 135.617C647.626 132.292 643.616 130.629 638.726 130.629C633.836 130.629 629.826 132.292 626.696 135.617C623.567 138.942 622.002 143.539 622.002 149.407C622.002 155.373 623.567 160.067 626.696 163.49C629.826 166.815 633.836 168.478 638.726 168.478Z" fill="#131B2F"/>
<path d="M746.554 108.477C753.791 108.477 760.344 110.189 766.212 113.612C772.178 116.937 776.872 121.729 780.295 127.988C783.816 134.15 785.576 141.338 785.576 149.553C785.576 157.769 783.816 165.006 780.295 171.265C776.872 177.427 772.178 182.219 766.212 185.642C760.344 188.967 753.791 190.63 746.554 190.63C737.263 190.63 729.879 187.842 724.402 182.268V217.77H696.529V109.797H723.082V117.719C728.265 111.558 736.089 108.477 746.554 108.477ZM740.686 168.478C745.576 168.478 749.586 166.815 752.715 163.49C755.845 160.067 757.41 155.421 757.41 149.553C757.41 143.685 755.845 139.089 752.715 135.763C749.586 132.34 745.576 130.629 740.686 130.629C735.796 130.629 731.786 132.34 728.656 135.763C725.527 139.089 723.962 143.685 723.962 149.553C723.962 155.421 725.527 160.067 728.656 163.49C731.786 166.815 735.796 168.478 740.686 168.478Z" fill="#131B2F"/>
<path d="M850.318 108.477C860.195 108.477 868.117 111.411 874.083 117.279C880.147 123.147 883.179 131.998 883.179 143.832V189.309H855.305V148.38C855.305 137.524 850.953 132.096 842.249 132.096C837.457 132.096 833.594 133.661 830.66 136.79C827.823 139.92 826.405 144.614 826.405 150.874V189.309H798.532V80.457H826.405V117.132C829.437 114.296 833.007 112.145 837.114 110.678C841.222 109.211 845.623 108.477 850.318 108.477Z" fill="#131B2F"/>
<path d="M983.097 149.7C983.097 149.896 982.951 152.194 982.657 156.595H924.857C926.03 160.703 928.28 163.881 931.605 166.131C935.028 168.282 939.282 169.358 944.368 169.358C948.182 169.358 951.459 168.82 954.197 167.744C957.033 166.669 959.869 164.908 962.706 162.463L977.376 177.72C969.65 186.327 958.354 190.63 943.488 190.63C934.197 190.63 926.03 188.869 918.989 185.349C911.947 181.828 906.47 176.938 902.558 170.678C898.744 164.419 896.837 157.329 896.837 149.407C896.837 141.583 898.695 134.59 902.411 128.428C906.226 122.169 911.458 117.279 918.108 113.758C924.759 110.237 932.241 108.477 940.554 108.477C948.476 108.477 955.664 110.14 962.119 113.465C968.574 116.692 973.659 121.436 977.376 127.695C981.19 133.856 983.097 141.191 983.097 149.7ZM940.701 128.282C936.397 128.282 932.779 129.504 929.845 131.949C927.008 134.394 925.199 137.719 924.417 141.925H956.984C956.202 137.719 954.344 134.394 951.41 131.949C948.573 129.504 945.004 128.282 940.701 128.282Z" fill="#131B2F"/>
<path d="M1050.81 186.082C1048.47 187.549 1045.58 188.674 1042.16 189.456C1038.83 190.239 1035.26 190.63 1031.45 190.63C1021.08 190.63 1013.11 188.087 1007.54 183.001C1001.96 177.916 999.176 170.336 999.176 160.263V133.563H987.586V112.731H999.176V92.0464H1027.05V112.731H1045.24V133.563H1027.05V159.969C1027.05 162.805 1027.78 165.055 1029.25 166.717C1030.81 168.282 1032.87 169.065 1035.41 169.065C1038.64 169.065 1041.47 168.233 1043.92 166.571L1050.81 186.082Z" fill="#131B2F"/>
<path d="M1078.67 190.441C1074.64 190.441 1071.25 189.1 1068.48 186.418C1065.72 183.735 1064.33 180.34 1064.33 176.232C1064.33 172.041 1065.67 168.646 1068.36 166.047C1071.12 163.448 1074.56 162.149 1078.67 162.149C1082.86 162.149 1086.3 163.448 1088.98 166.047C1091.66 168.646 1093 172.041 1093 176.232C1093 180.34 1091.62 183.735 1088.85 186.418C1086.17 189.1 1082.77 190.441 1078.67 190.441Z" fill="#47BC70"/>
<path d="M1106.75 109.798H1134.63V189.31H1106.75V109.798ZM1120.69 100.995C1115.61 100.995 1111.5 99.5774 1108.37 96.7412C1105.24 93.9049 1103.67 90.3841 1103.67 86.1787C1103.67 81.9732 1105.24 78.4524 1108.37 75.6162C1111.5 72.7799 1115.61 71.3618 1120.69 71.3618C1125.78 71.3618 1129.88 72.731 1133.01 75.4695C1136.14 78.1101 1137.71 81.5331 1137.71 85.7386C1137.71 90.1396 1136.14 93.8071 1133.01 96.7412C1129.88 99.5774 1125.78 100.995 1120.69 100.995Z" fill="#47BC70"/>
<path d="M1194.11 190.63C1185.6 190.63 1177.93 188.87 1171.08 185.349C1164.23 181.828 1158.85 176.938 1154.94 170.679C1151.13 164.419 1149.22 157.329 1149.22 149.407C1149.22 141.583 1151.13 134.541 1154.94 128.282C1158.85 122.023 1164.18 117.182 1170.93 113.759C1177.78 110.238 1185.51 108.477 1194.11 108.477C1202.72 108.477 1210.44 110.238 1217.29 113.759C1224.14 117.182 1229.47 122.023 1233.28 128.282C1237.1 134.443 1239 141.485 1239 149.407C1239 157.329 1237.1 164.419 1233.28 170.679C1229.47 176.938 1224.14 181.828 1217.29 185.349C1210.44 188.87 1202.72 190.63 1194.11 190.63ZM1194.11 168.478C1199 168.478 1203.01 166.816 1206.14 163.49C1209.27 160.067 1210.84 155.373 1210.84 149.407C1210.84 143.539 1209.27 138.942 1206.14 135.617C1203.01 132.292 1199 130.629 1194.11 130.629C1189.22 130.629 1185.21 132.292 1182.08 135.617C1178.95 138.942 1177.39 143.539 1177.39 149.407C1177.39 155.373 1178.95 160.067 1182.08 163.49C1185.21 166.816 1189.22 168.478 1194.11 168.478Z" fill="#47BC70"/>
<path d="M466.13 268.918C466.13 273.054 465.309 276.667 463.668 279.759C462.063 282.812 459.694 285.189 456.56 286.89C453.463 288.59 449.751 289.441 445.423 289.441H432.215V248.512H445.423C449.751 248.512 453.463 249.362 456.56 251.062C459.694 252.724 462.063 255.082 463.668 258.135C465.309 261.188 466.13 264.783 466.13 268.918ZM444.919 283.469C449.658 283.469 453.295 282.194 455.833 279.643C458.37 277.092 459.638 273.517 459.638 268.918C459.638 264.319 458.37 260.744 455.833 258.193C453.295 255.642 449.658 254.367 444.919 254.367H438.595V283.469H444.919Z" fill="#131B2F"/>
<path d="M509.257 280.571H492.579L489.557 289.441H482.729L497.281 249.149H504.612L519.107 289.441H512.28L509.257 280.571ZM507.466 275.469L500.918 256.338L494.37 275.469H507.466Z" fill="#131B2F"/>
<path d="M555.291 247.99C558.948 247.99 562.25 248.879 565.197 250.657C568.182 252.434 570.514 254.927 572.193 258.135C573.909 261.304 574.767 264.899 574.767 268.918C574.767 272.938 573.909 276.551 572.193 279.759C570.514 282.928 568.182 285.421 565.197 287.238C562.25 289.016 558.948 289.904 555.291 289.904C551.597 289.904 548.258 289.016 545.273 287.238C542.326 285.421 539.994 282.928 538.278 279.759C536.561 276.551 535.703 272.938 535.703 268.918C535.703 264.899 536.561 261.304 538.278 258.135C539.994 254.927 542.326 252.434 545.273 250.657C548.258 248.879 551.597 247.99 555.291 247.99ZM555.291 254.135C552.754 254.135 550.497 254.734 548.519 255.932C546.542 257.13 544.993 258.85 543.874 261.092C542.792 263.333 542.251 265.942 542.251 268.918C542.251 271.894 542.792 274.503 543.874 276.744C544.993 278.986 546.542 280.706 548.519 281.904C550.497 283.102 552.754 283.701 555.291 283.701C557.791 283.701 560.011 283.102 561.951 281.904C563.929 280.706 565.458 278.986 566.54 276.744C567.66 274.503 568.219 271.894 568.219 268.918C568.219 265.942 567.66 263.333 566.54 261.092C565.458 258.85 563.929 257.13 561.951 255.932C560.011 254.734 557.791 254.135 555.291 254.135Z" fill="#131B2F"/>
<path d="M624.097 271.585H612.903V283.295H606.691V271.585H595.554V265.498H606.691V253.729H612.903V265.498H624.097V271.585Z" fill="#131B2F"/>
<path d="M680.044 268.918C680.044 273.054 679.223 276.667 677.581 279.759C675.977 282.812 673.608 285.189 670.474 286.89C667.377 288.59 663.665 289.441 659.336 289.441H646.128V248.512H659.336C663.665 248.512 667.377 249.362 670.474 251.062C673.608 252.724 675.977 255.082 677.581 258.135C679.223 261.188 680.044 264.783 680.044 268.918ZM658.833 283.469C663.571 283.469 667.209 282.194 669.746 279.643C672.283 277.092 673.552 273.517 673.552 268.918C673.552 264.319 672.283 260.744 669.746 258.193C667.209 255.642 663.571 254.367 658.833 254.367H652.509V283.469H658.833Z" fill="#131B2F"/>
<path d="M705.989 253.845V266.251H720.541V271.353H705.989V284.049H722.22V289.441H699.609V248.512H722.22V253.845H705.989Z" fill="#131B2F"/>
<path d="M764.112 289.441L754.654 274.31L746.203 289.441H738.872L751.128 268.57L738.592 248.512H746.203L755.494 263.353L763.888 248.512H771.22L759.019 269.034L771.724 289.441H764.112Z" fill="#131B2F"/>
</svg>
