<svg width="353" height="361" viewBox="0 0 353 361" fill="none" xmlns="http://www.w3.org/2000/svg">
<circle cx="176.422" cy="183.762" r="176.422" fill="#47BC70"/>
<path d="M245.796 318.984C240.169 317.488 234.716 315.502 229.41 313.094C228.112 312.502 227.617 311.763 227.46 310.317C223.932 277.733 219.764 245.242 212.327 213.266C212.259 212.814 212.179 212.362 212.073 211.914C210.051 203.327 207.703 194.821 204.149 186.712C203.235 184.629 202.072 182.66 201.065 180.618C200.553 179.583 199.026 178.713 199.444 177.677C200.083 176.11 200.786 174.466 202.216 173.262C207.322 168.964 211.087 163.673 213.49 157.441C215.238 152.902 216.426 148.33 216.245 143.323C215.944 135.171 216.198 126.999 216.13 118.835C216.118 117.436 216.558 116.532 217.628 115.665C231.754 104.222 246.223 93.2271 260.938 82.553C261.915 81.8431 262.977 81.4121 264.132 81.1247C267.825 80.2077 270.977 78.0991 274.336 76.4511C274.7 76.2736 275.246 75.644 275.195 75.5679C273.972 73.734 275.491 71.8789 275.127 69.9436C274.814 68.2786 273.812 66.6348 274.311 64.7713C274.624 63.6135 273.837 62.6331 272.788 62.6331C272.542 62.6247 272.284 62.6712 272.018 62.781C266.383 65.1347 260.506 67.2053 258.315 73.8861C257.718 75.7032 256 76.7047 254.465 77.7188C249.841 80.774 244.827 83.0854 239.721 85.1898C227.49 90.2311 215.233 95.2174 202.964 100.161C201.2 100.871 199.279 101.171 197.452 101.729C197.16 101.818 196.906 101.86 196.678 101.86C195.979 101.843 195.544 101.404 195.142 100.55C192.231 94.368 189.236 88.2239 186.249 82.0755C185.885 81.3276 185.771 80.5458 185.661 79.7429C184.916 74.4439 180.419 70.5352 175.156 70.5816C175.148 70.5816 175.143 70.5816 175.135 70.5816C175.122 70.5816 175.114 70.5816 175.101 70.5816C169.813 70.6323 165.413 74.558 164.715 79.8866C164.609 80.6979 164.473 81.4712 164.135 82.2234C161.41 88.2492 158.665 94.2708 156.008 100.326C155.644 101.154 155.246 101.522 154.616 101.514C154.404 101.505 154.163 101.454 153.892 101.366C151.028 100.432 148.016 99.8318 145.287 98.6106C134.609 93.8356 123.546 90.024 112.825 85.3546C112.292 85.1222 111.784 84.818 111.268 84.5475C106.466 82.6544 101.876 80.3514 97.6284 77.4103C96.0884 76.3412 94.9334 74.9933 94.2269 73.1931C93.1227 70.3746 91.2358 68.0927 88.5789 66.6391C87.3436 65.963 86.9755 65.139 86.967 63.8543C86.9332 57.5454 85.9009 51.5745 81.0144 46.9685C80.8579 46.8206 80.7817 46.5924 80.6464 46.4234C79.6056 45.0965 79.4618 43.6978 79.9864 42.0794C81.4206 37.6804 82.6771 33.2181 84.1451 28.8319C85.3509 25.2273 85.1647 21.7623 83.7094 18.2972C81.6913 13.4884 79.6945 8.66688 77.6849 3.85383C77.4606 3.31294 77.2703 2.72979 76.6357 2.51428C74.3088 1.73676 71.9734 0.959231 69.105 0C69.7312 1.34377 70.0992 2.12129 70.4546 2.90305C72.7815 7.98232 75.0618 13.0785 77.4437 18.1282C78.5014 20.372 78.7002 22.5736 77.9726 24.9527C76.771 28.8868 75.9757 32.9688 74.4822 36.7846C73.9703 38.0861 73.653 39.3327 73.5219 40.5286C73.5007 40.5412 73.4838 40.5581 73.4626 40.5708C73.1453 43.6006 74.0888 46.3177 76.5722 48.8743C79.8848 52.2802 81.044 56.5186 81.1371 61.1499C81.1583 62.1598 81.3106 62.9247 79.8891 63.1402C78.8272 63.305 78.4422 64.2811 78.806 65.3925C78.9287 65.7686 79.4745 66.1742 78.9795 66.5419C77.228 67.8518 78.9541 70.0492 77.6595 71.5071C77.376 71.824 77.761 72.4747 78.1799 72.8466C78.4252 73.0621 78.8991 73.2354 78.5226 73.6875C76.4749 76.1511 78.6325 76.7892 80.2529 77.6174C81.5644 78.2893 82.7448 78.7964 82.8802 80.6937C83.9759 95.9358 85.1944 111.174 86.3747 126.411C87.7666 145.097 89.1628 163.788 90.5504 182.474C91.3881 193.76 92.2892 205.043 92.9958 216.334C93.1058 218.083 93.9435 218.257 94.8615 218.244C95.1196 218.244 95.3819 218.223 95.64 218.219C95.788 218.219 95.9361 218.219 96.0757 218.236C96.2111 218.252 96.3296 218.257 96.4396 218.257C97.9922 218.278 97.2519 216.85 97.2053 216.11C95.3523 186.699 93.4485 157.288 91.5616 127.882C91.2993 123.779 91.0877 119.671 90.855 115.568C90.3262 108.537 89.7931 101.509 89.2643 94.4779C88.9893 90.8142 88.7185 87.1506 88.4732 83.4827C88.3843 82.1811 88.5112 81.5853 89.0824 81.5346C89.4251 81.5262 89.9201 81.691 90.6097 82.0079C91.2062 82.2826 91.7562 82.6713 92.2892 83.0559C96.5115 86.1195 100.823 89.0606 104.812 92.4327C112.461 97.7908 119.734 103.648 127.108 109.365C129.837 111.482 132.464 113.734 135.201 115.843C136.238 116.642 136.61 117.525 136.602 118.826C136.547 126.762 136.674 134.702 136.551 142.638C136.373 154.373 141.035 163.978 149.239 172.053C150.686 173.477 151.599 175.21 152.75 176.803C153.08 177.263 153.152 177.652 152.776 178.172C146.65 186.636 143.976 196.532 141.323 206.383C135.134 229.332 131.427 252.768 128.051 276.263C127.184 282.297 126.283 288.331 125.648 294.395C125.424 296.529 124.705 297.015 122.843 296.364C122.429 296.221 122.006 296.094 121.587 295.963C121.007 295.895 120.419 295.866 119.844 295.76C112.385 294.353 104.876 293.394 97.2772 293.187C87.6439 292.925 78.5437 294.911 70.1838 299.745C65.9997 302.166 61.6928 302.889 57.0264 301.777C55.8122 301.486 54.5852 301.177 53.3457 301.063C50.5999 300.818 47.7865 300.852 45.4258 301.942C77.7314 337.658 124.468 360.109 176.455 360.109C216.355 360.109 253.162 346.887 282.726 324.592C270.309 323.531 257.925 322.209 245.796 318.984Z" fill="white"/>
</svg>
