<svg width="1240" height="361" viewBox="0 0 1240 361" fill="none" xmlns="http://www.w3.org/2000/svg">
<circle cx="176.422" cy="183.762" r="176.422" fill="#47BC70"/>
<path d="M245.796 318.984C240.169 317.488 234.716 315.502 229.41 313.094C228.112 312.502 227.617 311.763 227.46 310.317C223.932 277.733 219.764 245.242 212.327 213.266C212.259 212.814 212.179 212.362 212.073 211.914C210.051 203.327 207.703 194.821 204.149 186.712C203.235 184.629 202.072 182.66 201.065 180.618C200.553 179.583 199.026 178.713 199.444 177.677C200.083 176.11 200.786 174.466 202.216 173.262C207.322 168.964 211.087 163.673 213.49 157.441C215.238 152.902 216.426 148.33 216.245 143.323C215.944 135.171 216.198 126.999 216.13 118.835C216.118 117.436 216.558 116.532 217.628 115.665C231.754 104.222 246.223 93.2271 260.938 82.553C261.915 81.8431 262.977 81.4121 264.132 81.1247C267.825 80.2077 270.977 78.0991 274.336 76.4511C274.7 76.2736 275.246 75.644 275.195 75.5679C273.972 73.734 275.491 71.8789 275.127 69.9436C274.814 68.2786 273.812 66.6348 274.311 64.7713C274.624 63.6135 273.837 62.6331 272.788 62.6331C272.542 62.6247 272.284 62.6712 272.018 62.781C266.383 65.1347 260.506 67.2053 258.315 73.8861C257.718 75.7032 256 76.7047 254.465 77.7188C249.841 80.774 244.827 83.0854 239.721 85.1898C227.49 90.2311 215.233 95.2174 202.964 100.161C201.2 100.871 199.279 101.171 197.452 101.729C197.16 101.818 196.906 101.86 196.678 101.86C195.979 101.843 195.544 101.404 195.142 100.55C192.231 94.368 189.236 88.2239 186.249 82.0755C185.885 81.3276 185.771 80.5458 185.661 79.7429C184.916 74.4439 180.419 70.5352 175.156 70.5816C175.148 70.5816 175.143 70.5816 175.135 70.5816C175.122 70.5816 175.114 70.5816 175.101 70.5816C169.813 70.6323 165.413 74.558 164.715 79.8866C164.609 80.6979 164.473 81.4712 164.135 82.2234C161.41 88.2492 158.665 94.2708 156.008 100.326C155.644 101.154 155.246 101.522 154.616 101.514C154.404 101.505 154.163 101.454 153.892 101.366C151.028 100.432 148.016 99.8318 145.287 98.6106C134.609 93.8356 123.546 90.024 112.825 85.3546C112.292 85.1222 111.784 84.818 111.268 84.5475C106.466 82.6544 101.876 80.3514 97.6284 77.4103C96.0884 76.3412 94.9334 74.9933 94.2269 73.1931C93.1227 70.3746 91.2358 68.0927 88.5789 66.6391C87.3436 65.963 86.9755 65.139 86.967 63.8543C86.9332 57.5454 85.9009 51.5745 81.0144 46.9685C80.8579 46.8206 80.7817 46.5924 80.6464 46.4234C79.6056 45.0965 79.4618 43.6978 79.9864 42.0794C81.4206 37.6804 82.6771 33.2181 84.1451 28.8319C85.3509 25.2273 85.1647 21.7623 83.7094 18.2972C81.6913 13.4884 79.6945 8.66688 77.6849 3.85383C77.4606 3.31294 77.2703 2.72979 76.6357 2.51428C74.3088 1.73676 71.9734 0.959231 69.105 0C69.7312 1.34377 70.0992 2.12129 70.4546 2.90305C72.7815 7.98232 75.0618 13.0785 77.4437 18.1282C78.5014 20.372 78.7002 22.5736 77.9726 24.9527C76.771 28.8868 75.9757 32.9688 74.4822 36.7846C73.9703 38.0861 73.653 39.3327 73.5219 40.5286C73.5007 40.5412 73.4838 40.5581 73.4626 40.5708C73.1453 43.6006 74.0888 46.3177 76.5722 48.8743C79.8848 52.2802 81.044 56.5186 81.1371 61.1499C81.1583 62.1598 81.3106 62.9247 79.8891 63.1402C78.8272 63.305 78.4422 64.2811 78.806 65.3925C78.9287 65.7686 79.4745 66.1742 78.9795 66.5419C77.228 67.8518 78.9541 70.0492 77.6595 71.5071C77.376 71.824 77.761 72.4747 78.1799 72.8466C78.4252 73.0621 78.8991 73.2354 78.5226 73.6875C76.4749 76.1511 78.6325 76.7892 80.2529 77.6174C81.5644 78.2893 82.7448 78.7964 82.8802 80.6937C83.9759 95.9358 85.1944 111.174 86.3747 126.411C87.7666 145.097 89.1628 163.788 90.5504 182.474C91.3881 193.76 92.2892 205.043 92.9958 216.334C93.1058 218.083 93.9435 218.257 94.8615 218.244C95.1196 218.244 95.3819 218.223 95.64 218.219C95.788 218.219 95.9361 218.219 96.0757 218.236C96.2111 218.252 96.3296 218.257 96.4396 218.257C97.9922 218.278 97.2519 216.85 97.2053 216.11C95.3523 186.699 93.4485 157.288 91.5616 127.882C91.2993 123.779 91.0877 119.671 90.855 115.568C90.3262 108.537 89.7931 101.509 89.2643 94.4779C88.9893 90.8142 88.7185 87.1506 88.4732 83.4827C88.3843 82.1811 88.5112 81.5853 89.0824 81.5346C89.4251 81.5262 89.9201 81.691 90.6097 82.0079C91.2062 82.2826 91.7562 82.6713 92.2892 83.0559C96.5115 86.1195 100.823 89.0606 104.812 92.4327C112.461 97.7908 119.734 103.648 127.108 109.365C129.837 111.482 132.464 113.734 135.201 115.843C136.238 116.642 136.61 117.525 136.602 118.826C136.547 126.762 136.674 134.702 136.551 142.638C136.373 154.373 141.035 163.978 149.239 172.053C150.686 173.477 151.599 175.21 152.75 176.803C153.08 177.263 153.152 177.652 152.776 178.172C146.65 186.636 143.976 196.532 141.323 206.383C135.134 229.332 131.427 252.768 128.051 276.263C127.184 282.297 126.283 288.331 125.648 294.395C125.424 296.529 124.705 297.015 122.843 296.364C122.429 296.221 122.006 296.094 121.587 295.963C121.007 295.895 120.419 295.866 119.844 295.76C112.385 294.353 104.876 293.394 97.2772 293.187C87.6439 292.925 78.5437 294.911 70.1838 299.745C65.9997 302.166 61.6928 302.889 57.0264 301.777C55.8122 301.486 54.5852 301.177 53.3457 301.063C50.5999 300.818 47.7865 300.852 45.4258 301.942C77.7314 337.658 124.468 360.109 176.455 360.109C216.355 360.109 253.162 346.887 282.726 324.592C270.309 323.531 257.925 322.209 245.796 318.984Z" fill="white"/>
<path d="M482.806 108.327C490.044 108.327 496.596 110.039 502.464 113.462C508.43 116.787 513.125 121.579 516.548 127.838C520.069 134 521.829 141.188 521.829 149.403C521.829 157.619 520.069 164.856 516.548 171.115C513.125 177.277 508.43 182.069 502.464 185.492C496.596 188.817 490.044 190.48 482.806 190.48C473.515 190.48 466.131 187.693 460.655 182.118V217.62H432.781V109.647H459.334V117.569C464.518 111.408 472.342 108.327 482.806 108.327ZM476.938 168.328C481.828 168.328 485.838 166.665 488.968 163.34C492.098 159.917 493.662 155.272 493.662 149.403C493.662 143.535 492.098 138.939 488.968 135.614C485.838 132.191 481.828 130.479 476.938 130.479C472.048 130.479 468.038 132.191 464.909 135.614C461.779 138.939 460.214 143.535 460.214 149.403C460.214 155.272 461.779 159.917 464.909 163.34C468.038 166.665 472.048 168.328 476.938 168.328Z" fill="white"/>
<path d="M561.338 119.183C564.174 115.564 567.841 112.875 572.34 111.114C576.937 109.256 582.169 108.327 588.037 108.327V133.413C585.494 133.12 583.392 132.973 581.729 132.973C575.763 132.973 571.069 134.587 567.646 137.814C564.32 141.042 562.658 145.98 562.658 152.631V189.16H534.785V109.647H561.338V119.183Z" fill="white"/>
<path d="M638.726 190.48C630.217 190.48 622.54 188.719 615.694 185.199C608.848 181.678 603.469 176.788 599.557 170.528C595.742 164.269 593.835 157.179 593.835 149.257C593.835 141.433 595.742 134.391 599.557 128.132C603.469 121.873 608.799 117.031 615.547 113.608C622.393 110.088 630.119 108.327 638.726 108.327C647.332 108.327 655.059 110.088 661.905 113.608C668.751 117.031 674.081 121.873 677.895 128.132C681.709 134.293 683.617 141.335 683.617 149.257C683.617 157.179 681.709 164.269 677.895 170.528C674.081 176.788 668.751 181.678 661.905 185.199C655.059 188.719 647.332 190.48 638.726 190.48ZM638.726 168.328C643.616 168.328 647.626 166.665 650.755 163.34C653.885 159.917 655.45 155.223 655.45 149.257C655.45 143.389 653.885 138.792 650.755 135.467C647.626 132.142 643.616 130.479 638.726 130.479C633.836 130.479 629.826 132.142 626.696 135.467C623.567 138.792 622.002 143.389 622.002 149.257C622.002 155.223 623.567 159.917 626.696 163.34C629.826 166.665 633.836 168.328 638.726 168.328Z" fill="white"/>
<path d="M746.554 108.327C753.791 108.327 760.344 110.039 766.212 113.462C772.178 116.787 776.872 121.579 780.295 127.838C783.816 134 785.576 141.188 785.576 149.403C785.576 157.619 783.816 164.856 780.295 171.115C776.872 177.277 772.178 182.069 766.212 185.492C760.344 188.817 753.791 190.48 746.554 190.48C737.263 190.48 729.879 187.693 724.402 182.118V217.62H696.529V109.647H723.082V117.569C728.265 111.408 736.089 108.327 746.554 108.327ZM740.686 168.328C745.576 168.328 749.586 166.665 752.715 163.34C755.845 159.917 757.41 155.272 757.41 149.403C757.41 143.535 755.845 138.939 752.715 135.614C749.586 132.191 745.576 130.479 740.686 130.479C735.796 130.479 731.786 132.191 728.656 135.614C725.527 138.939 723.962 143.535 723.962 149.403C723.962 155.272 725.527 159.917 728.656 163.34C731.786 166.665 735.796 168.328 740.686 168.328Z" fill="white"/>
<path d="M850.318 108.327C860.195 108.327 868.117 111.261 874.083 117.129C880.147 122.997 883.179 131.848 883.179 143.682V189.16H855.305V148.23C855.305 137.374 850.953 131.946 842.249 131.946C837.457 131.946 833.594 133.511 830.66 136.64C827.823 139.77 826.405 144.465 826.405 150.724V189.16H798.532V80.3071H826.405V116.982C829.437 114.146 833.007 111.995 837.114 110.528C841.222 109.061 845.623 108.327 850.318 108.327Z" fill="white"/>
<path d="M983.097 149.55C983.097 149.746 982.951 152.044 982.657 156.445H924.857C926.03 160.553 928.28 163.731 931.605 165.981C935.028 168.132 939.282 169.208 944.368 169.208C948.182 169.208 951.459 168.67 954.197 167.594C957.033 166.519 959.869 164.758 962.706 162.313L977.376 177.57C969.65 186.177 958.354 190.48 943.488 190.48C934.197 190.48 926.03 188.719 918.989 185.199C911.947 181.678 906.47 176.788 902.558 170.528C898.744 164.269 896.837 157.179 896.837 149.257C896.837 141.433 898.695 134.44 902.411 128.278C906.226 122.019 911.458 117.129 918.108 113.608C924.759 110.088 932.241 108.327 940.554 108.327C948.476 108.327 955.664 109.99 962.119 113.315C968.574 116.542 973.659 121.286 977.376 127.545C981.19 133.706 983.097 141.042 983.097 149.55ZM940.701 128.132C936.397 128.132 932.779 129.354 929.845 131.799C927.008 134.244 925.199 137.57 924.417 141.775H956.984C956.202 137.57 954.344 134.244 951.41 131.799C948.573 129.354 945.004 128.132 940.701 128.132Z" fill="white"/>
<path d="M1050.81 185.932C1048.47 187.399 1045.58 188.524 1042.16 189.306C1038.83 190.089 1035.26 190.48 1031.45 190.48C1021.08 190.48 1013.11 187.937 1007.54 182.851C1001.96 177.766 999.176 170.186 999.176 160.113V133.413H987.586V112.581H999.176V91.8965H1027.05V112.581H1045.24V133.413H1027.05V159.819C1027.05 162.656 1027.78 164.905 1029.25 166.568C1030.81 168.132 1032.87 168.915 1035.41 168.915C1038.64 168.915 1041.47 168.083 1043.92 166.421L1050.81 185.932Z" fill="white"/>
<path d="M1078.67 190.292C1074.64 190.292 1071.25 188.95 1068.48 186.268C1065.72 183.585 1064.33 180.19 1064.33 176.082C1064.33 171.891 1065.67 168.496 1068.36 165.897C1071.12 163.298 1074.56 161.999 1078.67 161.999C1082.86 161.999 1086.3 163.298 1088.98 165.897C1091.66 168.496 1093 171.891 1093 176.082C1093 180.19 1091.62 183.585 1088.85 186.268C1086.17 188.95 1082.77 190.292 1078.67 190.292Z" fill="#47BC70"/>
<path d="M1106.75 109.648H1134.63V189.16H1106.75V109.648ZM1120.69 100.846C1115.61 100.846 1111.5 99.4275 1108.37 96.5913C1105.24 93.755 1103.67 90.2342 1103.67 86.0288C1103.67 81.8233 1105.24 78.3025 1108.37 75.4663C1111.5 72.63 1115.61 71.2119 1120.69 71.2119C1125.78 71.2119 1129.88 72.5811 1133.01 75.3196C1136.14 77.9602 1137.71 81.3832 1137.71 85.5887C1137.71 89.9897 1136.14 93.6572 1133.01 96.5913C1129.88 99.4275 1125.78 100.846 1120.69 100.846Z" fill="#47BC70"/>
<path d="M1194.11 190.48C1185.6 190.48 1177.93 188.72 1171.08 185.199C1164.23 181.678 1158.85 176.788 1154.94 170.529C1151.13 164.27 1149.22 157.179 1149.22 149.257C1149.22 141.433 1151.13 134.391 1154.94 128.132C1158.85 121.873 1164.18 117.032 1170.93 113.609C1177.78 110.088 1185.51 108.327 1194.11 108.327C1202.72 108.327 1210.44 110.088 1217.29 113.609C1224.14 117.032 1229.47 121.873 1233.28 128.132C1237.1 134.294 1239 141.335 1239 149.257C1239 157.179 1237.1 164.27 1233.28 170.529C1229.47 176.788 1224.14 181.678 1217.29 185.199C1210.44 188.72 1202.72 190.48 1194.11 190.48ZM1194.11 168.328C1199 168.328 1203.01 166.666 1206.14 163.34C1209.27 159.917 1210.84 155.223 1210.84 149.257C1210.84 143.389 1209.27 138.792 1206.14 135.467C1203.01 132.142 1199 130.479 1194.11 130.479C1189.22 130.479 1185.21 132.142 1182.08 135.467C1178.95 138.792 1177.39 143.389 1177.39 149.257C1177.39 155.223 1178.95 159.917 1182.08 163.34C1185.21 166.666 1189.22 168.328 1194.11 168.328Z" fill="#47BC70"/>
<path d="M466.13 268.768C466.13 272.904 465.309 276.517 463.668 279.609C462.063 282.662 459.694 285.039 456.56 286.74C453.463 288.44 449.751 289.291 445.423 289.291H432.215V248.362H445.423C449.751 248.362 453.463 249.212 456.56 250.912C459.694 252.574 462.063 254.932 463.668 257.985C465.309 261.038 466.13 264.633 466.13 268.768ZM444.919 283.319C449.658 283.319 453.295 282.044 455.833 279.493C458.37 276.942 459.638 273.367 459.638 268.768C459.638 264.169 458.37 260.594 455.833 258.043C453.295 255.492 449.658 254.217 444.919 254.217H438.595V283.319H444.919Z" fill="white"/>
<path d="M509.257 280.421H492.579L489.557 289.291H482.729L497.281 248.999H504.612L519.107 289.291H512.28L509.257 280.421ZM507.466 275.319L500.918 256.188L494.37 275.319H507.466Z" fill="white"/>
<path d="M555.291 247.84C558.948 247.84 562.25 248.729 565.197 250.507C568.182 252.284 570.514 254.777 572.193 257.985C573.909 261.154 574.767 264.749 574.767 268.768C574.767 272.788 573.909 276.401 572.193 279.609C570.514 282.778 568.182 285.271 565.197 287.088C562.25 288.866 558.948 289.755 555.291 289.755C551.597 289.755 548.258 288.866 545.273 287.088C542.326 285.271 539.994 282.778 538.278 279.609C536.561 276.401 535.703 272.788 535.703 268.768C535.703 264.749 536.561 261.154 538.278 257.985C539.994 254.777 542.326 252.284 545.273 250.507C548.258 248.729 551.597 247.84 555.291 247.84ZM555.291 253.985C552.754 253.985 550.497 254.584 548.519 255.782C546.542 256.98 544.993 258.7 543.874 260.942C542.792 263.183 542.251 265.792 542.251 268.768C542.251 271.744 542.792 274.353 543.874 276.595C544.993 278.836 546.542 280.556 548.519 281.754C550.497 282.952 552.754 283.551 555.291 283.551C557.791 283.551 560.011 282.952 561.951 281.754C563.929 280.556 565.458 278.836 566.54 276.595C567.66 274.353 568.219 271.744 568.219 268.768C568.219 265.792 567.66 263.183 566.54 260.942C565.458 258.7 563.929 256.98 561.951 255.782C560.011 254.584 557.791 253.985 555.291 253.985Z" fill="white"/>
<path d="M624.097 271.435H612.903V283.146H606.691V271.435H595.554V265.348H606.691V253.579H612.903V265.348H624.097V271.435Z" fill="white"/>
<path d="M680.044 268.768C680.044 272.904 679.223 276.517 677.581 279.609C675.977 282.662 673.608 285.039 670.474 286.74C667.377 288.44 663.665 289.291 659.336 289.291H646.128V248.362H659.336C663.665 248.362 667.377 249.212 670.474 250.912C673.608 252.574 675.977 254.932 677.581 257.985C679.223 261.038 680.044 264.633 680.044 268.768ZM658.833 283.319C663.571 283.319 667.209 282.044 669.746 279.493C672.283 276.942 673.552 273.367 673.552 268.768C673.552 264.169 672.283 260.594 669.746 258.043C667.209 255.492 663.571 254.217 658.833 254.217H652.509V283.319H658.833Z" fill="white"/>
<path d="M705.989 253.695V266.101H720.541V271.203H705.989V283.899H722.22V289.291H699.609V248.362H722.22V253.695H705.989Z" fill="white"/>
<path d="M764.112 289.291L754.654 274.16L746.203 289.291H738.872L751.128 268.42L738.592 248.362H746.203L755.494 263.203L763.888 248.362H771.22L759.019 268.884L771.724 289.291H764.112Z" fill="white"/>
</svg>
