<svg width="84" height="84" viewBox="0 0 84 84" fill="none" xmlns="http://www.w3.org/2000/svg">
<g clip-path="url(#clip0)">
<path d="M57.444 27.0347C55.6944 25.5813 53.021 23.6622 52.7075 28.8646C52.6009 30.6335 51.9827 32.0704 51.4435 33.233C50.1929 29.5948 47.4402 26.0287 44.9885 23.7058C44.0711 22.8367 40.7589 19.3361 39.3359 12.9161C39.1235 11.9579 37.9101 11.6604 37.2796 12.4126C31.2539 19.6005 28.6532 28.708 29.8367 38.3983C29.8367 38.3983 26.641 36.3754 24.4695 32.0957C23.8848 30.9432 22.2312 30.9344 21.6739 32.1005C21.5669 32.3244 21.4698 32.5473 21.3842 32.7624C17.3604 42.8759 16.367 54.6244 20.1795 64.9063C26.5579 82.1263 53.3485 83.5174 65.6438 70.4626C77.6734 57.6901 70.5919 37.9516 57.444 27.0347Z" fill="#ED694A"/>
<path d="M55.0461 40.5891C53.7539 39.5156 51.7792 38.0981 51.5477 41.9407C51.469 43.2471 51.0122 44.3086 50.6143 45.1673C49.6905 42.4801 47.6572 39.846 45.8465 38.1303C45.1688 37.4884 42.7225 34.9029 41.6712 30.1607C41.5143 29.4529 40.6182 29.2333 40.1525 29.7888C35.7019 35.0979 33.7808 41.8251 34.6551 48.9823C34.6551 48.9823 32.2946 47.4882 30.6909 44.3271C30.259 43.4759 29.0375 43.4694 28.626 44.3307C28.547 44.496 28.4752 44.6608 28.412 44.8197C25.4398 52.2897 24.7061 60.9673 27.522 68.5619C32.2332 81.2809 52.0213 82.3085 61.1028 72.6658C69.9881 63.2319 64.7575 48.6527 55.0461 40.5891Z" fill="#F4A32C"/>
<path d="M31.3007 69.0932C28.7087 61.6473 29.1831 53.2121 31.6368 45.9063C31.3092 45.4358 30.9878 44.9101 30.6921 44.3274C30.2602 43.4762 29.0387 43.4696 28.6272 44.3309C28.5482 44.4962 28.4764 44.6609 28.4132 44.82C25.4412 52.2899 24.7076 60.9675 27.5232 68.562C29.7144 74.4775 35.1671 77.8626 41.2867 78.8228C36.8237 77.3001 33.0318 74.0705 31.3007 69.0932Z" fill="#E89528"/>
<path d="M52.8588 52.9637C51.9841 52.2371 50.6471 51.2774 50.4905 53.8787C50.4373 54.7632 50.128 55.4816 49.8585 56.0629C49.233 54.2437 47.8569 52.4606 46.6309 51.2993C46.1723 50.8647 44.5162 49.1145 43.8045 45.9044C43.6982 45.4252 43.0917 45.2765 42.7764 45.6527C39.7636 49.2467 38.4632 53.8005 39.055 58.6454C39.055 58.6454 37.457 57.634 36.3715 55.4942C36.0792 54.918 35.2524 54.9136 34.9738 55.4966C34.9202 55.6084 34.8718 55.72 34.8288 55.8276C32.817 60.8843 32.3203 66.7585 34.2264 71.8996C37.4156 80.5097 50.8109 81.2052 56.9585 74.6777C59.0637 72.4425 60.1625 69.5484 60.0523 66.5286C59.8839 61.9548 57.4003 56.7347 52.8588 52.9637Z" fill="#F4D44E"/>
<path d="M50.8278 64.4464C50.3404 64.0416 49.5957 63.507 49.5083 64.9561C49.4787 65.4489 49.3065 65.8491 49.1562 66.173C48.8078 65.1595 48.041 64.1661 47.3581 63.5191C47.1026 63.2769 46.1798 62.3018 45.7833 60.5134C45.7241 60.2464 45.3861 60.1638 45.2105 60.3731C43.5321 62.3754 42.8075 64.9125 43.1373 67.6118C43.1373 67.6118 42.247 67.0483 41.6422 65.8561C41.4792 65.535 41.0186 65.5325 40.8635 65.8575C40.8337 65.9198 40.8068 65.9819 40.783 66.0419C39.6621 68.8592 39.3853 72.1318 40.4474 74.996C42.8673 81.5289 55.1146 79.6443 54.8358 72.0036C54.7416 69.4556 53.3579 66.5472 50.8278 64.4464Z" fill="#EAE9E8"/>
<path d="M43.4825 75.9434C42.4631 73.3907 42.7857 70.4529 43.9443 67.9115C43.9689 67.8574 43.9968 67.8014 44.0273 67.745C44.1868 67.4516 44.6465 67.4472 44.8045 67.7327C45.3912 68.7929 46.2718 69.2855 46.2718 69.2855C46.0329 67.3011 46.5041 65.4054 47.6242 63.7834C47.2737 63.4157 46.2378 62.5553 45.7853 60.5139C45.726 60.2469 45.388 60.1643 45.2125 60.3736C43.5341 62.3759 42.8094 64.913 43.1392 67.6123C43.1392 67.6123 42.249 67.0488 41.6441 65.8567C41.4813 65.5356 41.0206 65.5331 40.8655 65.8581C40.8357 65.9204 40.8087 65.9826 40.785 66.0425C39.6641 68.8597 39.3873 72.1324 40.4494 74.9967C41.4327 77.6517 44.1582 78.9551 46.9767 78.9739C45.3854 78.4457 44.0807 77.4431 43.4825 75.9434Z" fill="#F7E7A1"/>
<path d="M28.6262 17.0621C31.3677 14.1306 30.7183 9.43716 27.2975 7.35503C24.556 10.2863 25.2053 14.98 28.6262 17.0621Z" fill="#D8553A"/>
<path d="M68.3594 32.1396C71.1008 29.2081 70.4514 24.5147 67.0306 22.4326C65.7776 23.7722 64.9386 30.0575 68.3594 32.1396Z" fill="#D8553A"/>
<path d="M13.9815 41.5292C15.9572 39.4164 15.4893 36.034 13.0238 34.5332C12.1208 35.4987 11.516 40.0285 13.9815 41.5292Z" fill="#D8553A"/>
<path d="M50.4279 21.205C52.4037 19.0922 51.9357 15.7098 49.4703 14.209C47.4945 16.3217 47.9626 19.7044 50.4279 21.205Z" fill="#D8553A"/>
<path d="M37.335 47.4469C37.0205 41.3495 38.5886 35.675 41.8942 31.0601C41.8146 30.7693 41.74 30.4698 41.6715 30.1608C41.5146 29.453 40.6185 29.2334 40.1528 29.7889C36.626 33.9959 34.6908 39.0939 34.4732 44.5902L34.4717 44.59C34.4556 44.9977 34.4473 45.5894 34.4543 46.0525C34.4545 46.0529 34.4547 46.0531 34.4551 46.0535C34.4695 47.02 34.5349 47.997 34.6553 48.9826C34.7657 48.9888 37.3719 49.907 37.335 47.4469Z" fill="#E89528"/>
<path d="M37.9556 72.672C36.2283 67.8619 36.3988 62.457 37.8482 57.5957C37.3689 57.0869 36.8251 56.3896 36.3707 55.4938C36.0782 54.9176 35.2515 54.9132 34.9728 55.4962C34.9194 55.608 34.8707 55.7196 34.8279 55.8272C32.816 60.8839 32.3193 66.7581 34.2255 71.8992C35.7191 75.9314 39.4512 78.2277 43.6288 78.8594C41.0788 77.6275 38.9962 75.5726 37.9556 72.672Z" fill="#E8C842"/>
<path d="M42.5465 55.9623C42.5541 53.4289 43.1959 50.5508 44.4829 48.042C44.2201 47.4193 43.983 46.7076 43.8049 45.9043C43.6986 45.4252 43.092 45.2764 42.7768 45.6526C40.8996 47.892 39.6899 50.5047 39.1858 53.3275L39.1835 53.3272C39.1041 53.7708 39.006 54.501 38.9641 55.0724C38.9651 55.072 38.9661 55.0719 38.967 55.0713C38.8808 56.2376 38.9075 57.4321 39.0557 58.6452C41.0133 58.622 42.5403 57.9274 42.5465 55.9623Z" fill="#E8C842"/>
</g>
<defs>
<clipPath id="clip0">
<rect width="73.7211" height="73.7211" fill="white" transform="translate(0.962891 10.96) rotate(-7.79434)"/>
</clipPath>
</defs>
</svg>
