<svg width="79" height="79" viewBox="0 0 79 79" fill="none" xmlns="http://www.w3.org/2000/svg">
<g clip-path="url(#clip0)">
<path d="M65.4949 57.8309C75.6952 43.3975 72.2636 23.428 57.8302 13.2277C43.3968 3.02742 23.4273 6.45903 13.227 20.8924C3.02677 35.3258 6.45838 55.2953 20.8918 65.4956C35.3251 75.6959 55.2947 72.2642 65.4949 57.8309Z" fill="#4372D2"/>
<path d="M58.0844 44.3708C58.3585 43.3775 58.1227 42.3631 57.5309 41.6093C59.083 41.1855 60.2494 39.5863 59.7153 37.5402C59.4723 36.6061 58.7224 35.8834 57.7916 35.6265L56.4441 35.2546L56.446 35.2477L50.1063 33.4906C48.2796 32.9864 47.2319 32.503 48.1016 30.8144C48.5033 30.0358 49.2834 28.7262 49.6502 27.153C50.3116 24.3232 49.2561 21.2138 47.7836 20.8074C46.2902 20.3953 45.5641 21.4283 45.0169 23.3029C45.0169 23.3029 44.6567 24.9602 43.8261 26.6968C42.5319 29.382 38.4677 31.2429 35.6142 31.913C35.2063 32.0097 34.8894 32.3184 34.7782 32.7213L30.1508 49.4887C29.984 50.093 30.336 50.7134 30.9403 50.8802L50.8459 56.4335C52.5199 56.8955 54.2481 55.9148 54.7101 54.2408C54.9842 53.2476 54.7465 52.2401 54.1636 51.4813C55.1983 51.1987 56.0621 50.3981 56.3669 49.2937C56.6372 48.3143 56.4115 47.3177 55.8405 46.5696C56.8853 46.3048 57.7738 45.496 58.0844 44.3708Z" fill="white"/>
<path d="M31.4645 31.0514L22.1639 28.4847C21.5248 28.3083 20.8601 28.6855 20.6838 29.3245L16.1848 45.6266C16.0084 46.2656 16.3856 46.9303 17.0246 47.1067L26.3252 49.6735C26.9642 49.8498 27.629 49.4726 27.8053 48.8336L32.3043 32.5315C32.4826 31.8856 32.1035 31.2278 31.4645 31.0514ZM23.5534 45.6868C22.8089 46.1092 21.8643 45.8485 21.4419 45.1041C21.0194 44.3596 21.2801 43.4149 22.0246 42.9925C22.7691 42.5701 23.7137 42.8308 24.1362 43.5752C24.5586 44.3197 24.2979 45.2644 23.5534 45.6868Z" fill="white"/>
</g>
<defs>
<clipPath id="clip0">
<rect width="64" height="64" fill="white" transform="translate(17.0254) rotate(15.4283)"/>
</clipPath>
</defs>
</svg>
