<svg width="87" height="74" viewBox="0 0 87 74" fill="none" xmlns="http://www.w3.org/2000/svg">
<path d="M3.57422 41.1211L1.48201 48.9293C0.756146 51.6383 14.3015 57.6194 31.7382 62.2916C49.1749 66.9637 63.8944 68.5627 64.6203 65.8537L66.7125 58.0455L3.57422 41.1211Z" fill="#FFAC00"/>
<mask id="mask0" mask-type="alpha" maskUnits="userSpaceOnUse" x="0" y="41" width="67" height="30">
<path d="M3.57422 41.1211L1.48201 48.9293C0.756146 51.6383 14.3015 57.6194 31.7382 62.2916C49.1749 66.9637 63.8944 68.5627 64.6203 65.8537L66.7125 58.0455L3.57422 41.1211Z" fill="#FFAC00"/>
</mask>
<g mask="url(#mask0)">
<path d="M6.63608 38.4637L5.14062 38.063L0.345304 55.9594L1.84075 56.3601L6.63608 38.4637Z" fill="#F48200"/>
<path d="M10.5052 39.5008L9.00977 39.1001L4.21444 56.9965L5.7099 57.3972L10.5052 39.5008Z" fill="#F48200"/>
<path d="M14.9349 40.6863L13.4395 40.2856L8.64413 58.182L10.1396 58.5827L14.9349 40.6863Z" fill="#F48200"/>
<path d="M20.4564 42.1658L18.9609 41.7651L14.1656 59.6615L15.6611 60.0622L20.4564 42.1658Z" fill="#F48200"/>
<path d="M26.5247 43.7923L25.0293 43.3916L20.234 61.288L21.7294 61.6887L26.5247 43.7923Z" fill="#F48200"/>
<path d="M33.14 45.5721L31.6445 45.1714L26.8492 63.0678L28.3447 63.4685L33.14 45.5721Z" fill="#F48200"/>
<path d="M66.8958 54.6234L65.4004 54.2227L60.6051 72.119L62.1005 72.5197L66.8958 54.6234Z" fill="#F48200"/>
<path d="M63.0228 53.5858L61.5273 53.1851L56.732 71.0814L58.2275 71.4821L63.0228 53.5858Z" fill="#F48200"/>
<path d="M58.6009 52.3934L57.1055 51.9927L52.3101 69.8891L53.8056 70.2898L58.6009 52.3934Z" fill="#F48200"/>
<path d="M53.0775 50.9139L51.582 50.5132L46.7867 68.4096L48.2822 68.8103L53.0775 50.9139Z" fill="#F48200"/>
<path d="M47.0091 49.2884L45.5137 48.8877L40.7184 66.7841L42.2138 67.1848L47.0091 49.2884Z" fill="#F48200"/>
<path d="M40.3919 47.5145L38.8965 47.1138L34.1012 65.0102L35.5966 65.4109L40.3919 47.5145Z" fill="#F48200"/>
</g>
<path d="M66.7564 57.9058C66.0305 60.6148 51.311 59.0158 33.8743 54.3437C16.4331 49.6638 2.88777 43.6826 3.61364 40.9736C4.3395 38.2647 19.059 39.8636 36.4957 44.5358C53.9369 49.2157 67.4823 55.1969 66.7564 57.9058Z" fill="#FFDC00"/>
<path d="M34.7172 51.2008C48.5783 54.9149 60.0878 56.9077 60.4243 55.6519C60.7608 54.3961 49.7969 50.3673 35.9357 46.6532C22.0746 42.9391 10.5651 40.9462 10.2286 42.202C9.89213 43.4578 20.856 47.4867 34.7172 51.2008Z" fill="#FFAC00"/>
<path d="M11.1317 43.1469C14.507 43.0528 24.2565 44.9361 35.5811 47.977C46.9011 51.0102 56.2922 54.2557 59.1667 56.031C59.9212 56.0098 60.3603 55.891 60.4227 55.6581C60.7594 54.4017 49.7977 50.374 35.9358 46.6532C22.0722 42.9385 10.567 40.9395 10.2303 42.1959C10.1618 42.4272 10.4827 42.7496 11.1317 43.1469Z" fill="#F48200"/>
<path d="M9.72461 33.2568L7.6324 41.0651C6.90654 43.774 20.4519 49.7552 37.8886 54.4273C55.3236 59.1056 70.0448 60.6984 70.7707 57.9895L72.8629 50.1813L9.72461 33.2568Z" fill="#FFAC00"/>
<mask id="mask1" mask-type="alpha" maskUnits="userSpaceOnUse" x="6" y="33" width="67" height="30">
<path d="M9.72461 33.2568L7.6324 41.0651C6.90654 43.774 20.4519 49.7552 37.8886 54.4273C55.3236 59.1056 70.0448 60.6984 70.7707 57.9895L72.8629 50.1813L9.72461 33.2568Z" fill="#FFAC00"/>
</mask>
<g mask="url(#mask1)">
<path d="M12.7826 30.6014L11.2871 30.2007L6.49179 48.0971L7.98724 48.4978L12.7826 30.6014Z" fill="#F48200"/>
<path d="M16.6556 31.6375L15.1602 31.2368L10.3648 49.1332L11.8603 49.5339L16.6556 31.6375Z" fill="#F48200"/>
<path d="M21.0814 32.8231L19.5859 32.4224L14.7906 50.3187L16.2861 50.7194L21.0814 32.8231Z" fill="#F48200"/>
<path d="M26.6029 34.3035L25.1074 33.9028L20.3121 51.7992L21.8076 52.1999L26.6029 34.3035Z" fill="#F48200"/>
<path d="M32.6654 35.929L31.1699 35.5283L26.3746 53.4247L27.8701 53.8254L32.6654 35.929Z" fill="#F48200"/>
<path d="M39.2884 37.703L37.793 37.3022L32.9976 55.1986L34.4931 55.5993L39.2884 37.703Z" fill="#F48200"/>
<path d="M73.0443 46.7537L71.5488 46.353L66.7535 64.2494L68.249 64.6501L73.0443 46.7537Z" fill="#F48200"/>
<path d="M69.1712 45.7152L67.6758 45.3145L62.8805 63.2108L64.3759 63.6115L69.1712 45.7152Z" fill="#F48200"/>
<path d="M64.7474 44.5301L63.252 44.1294L58.4566 62.0258L59.9521 62.4265L64.7474 44.5301Z" fill="#F48200"/>
<path d="M59.224 43.0501L57.7285 42.6494L52.9332 60.5458L54.4286 60.9465L59.224 43.0501Z" fill="#F48200"/>
<path d="M53.1556 41.4246L51.6602 41.0239L46.8648 58.9203L48.3603 59.321L53.1556 41.4246Z" fill="#F48200"/>
<path d="M46.5384 39.6512L45.043 39.2505L40.2476 57.1469L41.7431 57.5476L46.5384 39.6512Z" fill="#F48200"/>
</g>
<path d="M40.0244 46.4792C57.46 51.1511 72.1826 52.7432 72.9081 50.0353C73.6337 47.3274 60.0876 41.3449 42.652 36.673C25.2164 32.0012 10.4938 30.4091 9.76824 33.117C9.04266 35.8249 22.5888 41.8074 40.0244 46.4792Z" fill="#FFDC00"/>
<path d="M66.575 47.7865C66.2383 49.0429 54.7253 47.0485 40.8695 43.3293C27.006 39.6145 16.0459 35.5808 16.3826 34.3244C16.7193 33.0679 28.2323 35.0624 42.0881 38.7816C55.95 42.5025 66.9116 46.5301 66.575 47.7865Z" fill="#FFAC00"/>
<path d="M17.282 35.2811C20.6573 35.1871 30.4068 37.0703 41.7314 40.1113C53.0515 43.1445 62.4425 46.39 65.317 48.1652C66.0715 48.1441 66.5106 48.0252 66.573 47.7923C66.9097 46.5359 55.948 42.5083 42.0861 38.7874C28.2225 35.0727 16.7173 33.0738 16.3807 34.3302C16.3199 34.557 16.6391 34.8855 17.282 35.2811Z" fill="#F48200"/>
<path d="M15.7988 25.3657L13.7066 33.1739C12.9808 35.8829 26.5261 41.864 43.9628 46.5362C61.3979 51.2145 76.119 52.8073 76.8449 50.0984L78.9371 42.2901L15.7988 25.3657Z" fill="#FFAC00"/>
<mask id="mask2" mask-type="alpha" maskUnits="userSpaceOnUse" x="12" y="25" width="67" height="30">
<path d="M15.7988 25.3657L13.7066 33.1739C12.9808 35.8829 26.5261 41.864 43.9628 46.5362C61.3979 51.2145 76.119 52.8073 76.8449 50.0984L78.9371 42.2901L15.7988 25.3657Z" fill="#FFAC00"/>
</mask>
<g mask="url(#mask2)">
<path d="M18.8548 22.7161L17.3594 22.3154L12.5641 40.2118L14.0595 40.6125L18.8548 22.7161Z" fill="#F48200"/>
<path d="M22.7259 23.7532L21.2305 23.3525L16.4351 41.2489L17.9306 41.6496L22.7259 23.7532Z" fill="#F48200"/>
<path d="M27.1517 24.9388L25.6562 24.5381L20.8609 42.4345L22.3564 42.8352L27.1517 24.9388Z" fill="#F48200"/>
<path d="M32.6751 26.4178L31.1797 26.0171L26.3844 43.9135L27.8798 44.3142L32.6751 26.4178Z" fill="#F48200"/>
<path d="M38.7415 28.0433L37.2461 27.6426L32.4508 45.539L33.9462 45.9397L38.7415 28.0433Z" fill="#F48200"/>
<path d="M45.3626 29.8177L43.8672 29.417L39.0719 47.3134L40.5673 47.7141L45.3626 29.8177Z" fill="#F48200"/>
<path d="M79.1165 38.8699L77.6211 38.4692L72.8258 56.3656L74.3212 56.7663L79.1165 38.8699Z" fill="#F48200"/>
<path d="M75.2415 37.8314L73.7461 37.4307L68.9508 55.327L70.4462 55.7278L75.2415 37.8314Z" fill="#F48200"/>
<path d="M70.8197 36.6458L69.3242 36.2451L64.5289 54.1415L66.0243 54.5422L70.8197 36.6458Z" fill="#F48200"/>
<path d="M65.2943 35.1658L63.7988 34.7651L59.0035 52.6615L60.499 53.0622L65.2943 35.1658Z" fill="#F48200"/>
<path d="M59.2279 33.5399L57.7324 33.1392L52.9371 51.0355L54.4325 51.4362L59.2279 33.5399Z" fill="#F48200"/>
<path d="M52.6107 31.7601L51.1152 31.3594L46.3199 49.2558L47.8154 49.6565L52.6107 31.7601Z" fill="#F48200"/>
</g>
<path d="M78.9804 42.152C78.2545 44.8609 63.535 43.262 46.0983 38.5898C28.6632 33.9115 15.1179 27.9304 15.8422 25.2276C16.568 22.5186 31.2875 24.1176 48.7242 28.7897C66.1593 33.468 79.7046 39.4491 78.9804 42.152Z" fill="#FFDC00"/>
<path d="M72.6473 39.9027C72.3106 41.1591 60.7976 39.1647 46.9418 35.4455C33.0782 31.7307 22.1182 27.697 22.4549 26.4406C22.7915 25.1841 34.3045 27.1786 48.1603 30.8978C62.0223 34.6187 72.9839 38.6463 72.6473 39.9027Z" fill="#FFAC00"/>
<path d="M23.3542 27.3978C26.7296 27.3038 36.4791 29.187 47.8037 32.228C59.1237 35.2612 68.5148 38.5067 71.3893 40.2819C72.1438 40.2608 72.5829 40.1419 72.6453 39.909C72.982 38.6526 62.0203 34.625 48.1584 30.9041C34.2948 27.1894 22.7896 25.1905 22.4529 26.4469C22.3922 26.6737 22.7114 27.0022 23.3542 27.3978Z" fill="#F48200"/>
<path d="M10.8145 14.1304L8.72225 21.9386C7.99638 24.6476 21.5417 30.6287 38.9784 35.3008C56.4135 39.9791 71.1346 41.572 71.8605 38.863L73.9527 31.0548L10.8145 14.1304Z" fill="#FFAC00"/>
<mask id="mask3" mask-type="alpha" maskUnits="userSpaceOnUse" x="7" y="14" width="67" height="30">
<path d="M10.8145 14.1304L8.72225 21.9386C7.99638 24.6476 21.5417 30.6287 38.9784 35.3008C56.4135 39.9791 71.1346 41.572 71.8605 38.863L73.9527 31.0548L10.8145 14.1304Z" fill="#FFAC00"/>
</mask>
<g mask="url(#mask3)">
<path d="M13.8744 11.4818L12.3789 11.0811L7.58359 28.9774L9.07904 29.3781L13.8744 11.4818Z" fill="#F48200"/>
<path d="M17.7455 12.5179L16.25 12.1172L11.4547 30.0136L12.9501 30.4143L17.7455 12.5179Z" fill="#F48200"/>
<path d="M22.1693 13.7034L20.6738 13.3027L15.8785 31.1991L17.374 31.5998L22.1693 13.7034Z" fill="#F48200"/>
<path d="M27.6947 15.1829L26.1992 14.7822L21.4039 32.6786L22.8993 33.0793L27.6947 15.1829Z" fill="#F48200"/>
<path d="M33.7611 16.8084L32.2656 16.4077L27.4703 34.3041L28.9658 34.7048L33.7611 16.8084Z" fill="#F48200"/>
<path d="M40.3783 18.5828L38.8828 18.1821L34.0875 36.0785L35.5829 36.4792L40.3783 18.5828Z" fill="#F48200"/>
<path d="M74.1341 27.6341L72.6387 27.2334L67.8434 45.1298L69.3388 45.5305L74.1341 27.6341Z" fill="#F48200"/>
<path d="M70.2611 26.596L68.7656 26.1953L63.9703 44.0917L65.4658 44.4924L70.2611 26.596Z" fill="#F48200"/>
<path d="M65.8372 25.41L64.3418 25.0093L59.5465 42.9057L61.0419 43.3064L65.8372 25.41Z" fill="#F48200"/>
<path d="M60.3158 23.931L58.8203 23.5303L54.025 41.4267L55.5204 41.8274L60.3158 23.931Z" fill="#F48200"/>
<path d="M54.2474 22.3055L52.752 21.9048L47.9566 39.8012L49.4521 40.2019L54.2474 22.3055Z" fill="#F48200"/>
<path d="M47.6302 20.5252L46.1348 20.1245L41.3394 38.0209L42.8349 38.4216L47.6302 20.5252Z" fill="#F48200"/>
</g>
<path d="M73.9999 30.9161C73.2741 33.6251 58.5546 32.0261 41.1178 27.354C23.6828 22.6757 10.1375 16.6946 10.8617 13.9917C11.5876 11.2827 26.3071 12.8817 43.7438 17.5539C61.1788 22.2322 74.7242 28.2133 73.9999 30.9161Z" fill="#FFDC00"/>
<path d="M41.9516 24.2072C55.8127 27.9212 67.3222 29.9141 67.6587 28.6583C67.9952 27.4025 57.0313 23.3736 43.1701 19.6595C29.309 15.9454 17.7995 13.9526 17.463 15.2084C17.1265 16.4642 28.0904 20.4931 41.9516 24.2072Z" fill="#FFAC00"/>
<path d="M18.3699 16.1615C21.7453 16.0675 31.4948 17.9507 42.8194 20.9917C54.1394 24.0249 63.5305 27.2704 66.405 29.0456C67.1595 29.0244 67.5986 28.9056 67.661 28.6727C67.9977 27.4163 57.036 23.3887 43.1741 19.6678C29.3105 15.9531 17.8053 13.9542 17.4686 15.2106C17.4017 15.4357 17.721 15.7643 18.3699 16.1615Z" fill="#F48200"/>
<path d="M21.6641 7.52539L19.5719 15.3336C18.846 18.0426 32.3913 24.0237 49.828 28.6959C67.2647 33.368 81.9842 34.967 82.7101 32.258L84.8023 24.4498L21.6641 7.52539Z" fill="#FFAC00"/>
<mask id="mask4" mask-type="alpha" maskUnits="userSpaceOnUse" x="18" y="7" width="67" height="31">
<path d="M21.6641 7.52539L19.5719 15.3336C18.846 18.0426 32.3913 24.0237 49.828 28.6959C67.2647 33.368 81.9842 34.967 82.7101 32.258L84.8023 24.4498L21.6641 7.52539Z" fill="#FFAC00"/>
</mask>
<g mask="url(#mask4)">
<path d="M24.7142 4.86701L23.2188 4.46631L18.4234 22.3627L19.9189 22.7634L24.7142 4.86701Z" fill="#F48200"/>
<path d="M28.5912 5.91291L27.0957 5.51221L22.3004 23.4086L23.7958 23.8093L28.5912 5.91291Z" fill="#F48200"/>
<path d="M33.0189 7.09797L31.5234 6.69727L26.7281 24.5936L28.2236 24.9944L33.0189 7.09797Z" fill="#F48200"/>
<path d="M38.5384 8.57795L37.043 8.17725L32.2476 26.0736L33.7431 26.4743L38.5384 8.57795Z" fill="#F48200"/>
<path d="M44.6087 10.2049L43.1133 9.8042L38.318 27.7006L39.8134 28.1013L44.6087 10.2049Z" fill="#F48200"/>
<path d="M51.2259 11.9779L49.7305 11.5771L44.9351 29.4735L46.4306 29.8742L51.2259 11.9779Z" fill="#F48200"/>
<path d="M84.9798 21.0286L83.4844 20.6279L78.6891 38.5243L80.1845 38.925L84.9798 21.0286Z" fill="#F48200"/>
<path d="M81.1009 19.9896L79.6055 19.5889L74.8101 37.4852L76.3056 37.886L81.1009 19.9896Z" fill="#F48200"/>
<path d="M76.683 18.806L75.1875 18.4053L70.3922 36.3017L71.8876 36.7024L76.683 18.806Z" fill="#F48200"/>
<path d="M71.1595 17.325L69.6641 16.9243L64.8687 34.8207L66.3642 35.2214L71.1595 17.325Z" fill="#F48200"/>
<path d="M65.0892 15.6981L63.5938 15.2974L58.7984 33.1937L60.2939 33.5944L65.0892 15.6981Z" fill="#F48200"/>
<path d="M58.4779 13.9202L56.9824 13.5195L52.1871 31.4159L53.6826 31.8166L58.4779 13.9202Z" fill="#F48200"/>
</g>
<path d="M84.8437 24.3097C84.1178 27.0187 69.3983 25.4197 51.9616 20.7475C34.5265 16.0692 20.9812 10.0881 21.7054 7.38527C22.4313 4.6763 37.1508 6.27527 54.5875 10.9474C72.0165 15.6241 85.5679 21.6068 84.8437 24.3097Z" fill="#FFDC00"/>
<path d="M52.8012 17.6027C66.6623 21.3167 78.1718 23.3096 78.5083 22.0538C78.8448 20.798 67.8809 16.7691 54.0197 13.055C40.1586 9.34094 28.6491 7.3481 28.3126 8.6039C27.9761 9.8597 38.94 13.8886 52.8012 17.6027Z" fill="#FFAC00"/>
<path d="M29.2201 9.55649C32.5971 9.45631 42.3449 11.3457 53.665 14.3789C64.9851 17.4121 74.3761 20.6575 77.2506 22.4328C78.0051 22.4116 78.4442 22.2928 78.5066 22.0599C78.8433 20.8035 67.8816 16.7759 54.0197 13.055C40.1561 9.34029 28.6509 7.34135 28.3142 8.59777C28.2518 8.83067 28.5727 9.15313 29.2201 9.55649Z" fill="#F48200"/>
</svg>
