<svg width="66" height="66" viewBox="0 0 66 66" fill="none" xmlns="http://www.w3.org/2000/svg">
<g clip-path="url(#clip0)">
<path d="M29.6367 49.9658C29.1027 49.9658 28.6699 50.3986 28.6699 50.9326V58.3365C28.6699 58.8705 29.1027 59.3033 29.6367 59.3033C30.1708 59.3033 30.6035 58.8705 30.6035 58.3365V50.9326C30.6035 50.3986 30.1708 49.9658 29.6367 49.9658Z" fill="#45D987"/>
<path d="M21.8105 49.9658C21.2765 49.9658 20.8438 50.3986 20.8438 50.9326V58.3365C20.8438 58.8705 21.2765 59.3033 21.8105 59.3033C22.3446 59.3033 22.7773 58.8705 22.7773 58.3365V50.9326C22.7773 50.3986 22.3446 49.9658 21.8105 49.9658Z" fill="#45D987"/>
<path d="M25.7227 50.4312C25.1886 50.4312 24.7559 50.8639 24.7559 51.3979V63.0201C24.7559 63.5542 25.1886 63.9869 25.7227 63.9869C26.2567 63.9869 26.6895 63.5542 26.6895 63.0201V51.3979C26.6895 50.864 26.2566 50.4312 25.7227 50.4312Z" fill="#45D987"/>
<path d="M51.168 23.7412H58.5718C59.1059 23.7412 59.5386 23.3085 59.5386 22.7744C59.5386 22.2404 59.1059 21.8076 58.5718 21.8076H51.168C50.6339 21.8076 50.2012 22.2404 50.2012 22.7744C50.2012 23.3085 50.6339 23.7412 51.168 23.7412Z" fill="#45D987"/>
<path d="M58.5718 29.6323H51.168C50.6339 29.6323 50.2012 30.0651 50.2012 30.5991C50.2012 31.1332 50.6339 31.5659 51.168 31.5659H58.5718C59.1059 31.5659 59.5386 31.1332 59.5386 30.5991C59.5386 30.0651 59.1059 29.6323 58.5718 29.6323Z" fill="#45D987"/>
<path d="M63.3193 25.7197H51.4648C50.9308 25.7197 50.498 26.1525 50.498 26.6865C50.498 27.2206 50.9308 27.6533 51.4648 27.6533H63.3193C63.8534 27.6533 64.2861 27.2206 64.2861 26.6865C64.2861 26.1525 63.8534 25.7197 63.3193 25.7197Z" fill="#45D987"/>
<path d="M60.1339 65.7665L46.7998 52.4324C46.4886 52.1213 46.4886 51.6167 46.7998 51.3057L51.3071 46.7983C51.6183 46.4871 52.1228 46.4871 52.4339 46.7983L65.768 60.1324C66.0791 60.4436 66.0791 60.9481 65.768 61.2592L61.2606 65.7665C60.9494 66.0775 60.445 66.0775 60.1339 65.7665Z" fill="#50CA7A"/>
<path d="M41.4941 44.3208L44.3107 41.5042L50.4499 47.6434L47.6333 50.46L41.4941 44.3208Z" fill="#4380A0"/>
<path d="M49.2754 54.9204L54.9086 49.2872L57.7252 52.1037L52.092 57.737L49.2754 54.9204Z" fill="#7BE492"/>
<path d="M25.8953 51.7907C40.1969 51.7907 51.7907 40.1969 51.7907 25.8953C51.7907 11.5937 40.1969 0 25.8953 0C11.5937 0 0 11.5937 0 25.8953C0 40.1969 11.5937 51.7907 25.8953 51.7907Z" fill="#43809F"/>
<path d="M25.8959 47.8069C37.9972 47.8069 47.8073 37.9968 47.8073 25.8954C47.8073 13.794 37.9972 3.98389 25.8959 3.98389C13.7945 3.98389 3.98438 13.794 3.98438 25.8954C3.98438 37.9968 13.7945 47.8069 25.8959 47.8069Z" fill="#F3F3F3"/>
<path d="M25.8963 3.98389C25.2247 3.98389 24.5607 4.01598 23.9043 4.07541C35.0562 5.08526 43.8238 14.4848 43.8238 25.8954C43.8238 37.3059 35.0562 46.7055 23.9043 47.7153C24.5607 47.7748 25.2247 47.8069 25.8963 47.8069C37.9783 47.8069 47.8078 37.9774 47.8078 25.8954C47.8078 13.8134 37.9784 3.98389 25.8963 3.98389Z" fill="#E4E4E4"/>
<path d="M22.2432 26.3604H14.2754V14.6743C14.2754 14.3809 14.5132 14.1431 14.8066 14.1431H21.712C22.0054 14.1431 22.2432 14.3809 22.2432 14.6743V26.3604Z" fill="#29CEF6"/>
<path d="M38.1788 26.3605H30.2109V19.7207C30.2109 19.4273 30.4488 19.1895 30.7422 19.1895H37.6475C37.9409 19.1895 38.1788 19.4273 38.1788 19.7207V26.3605Z" fill="#7BE492"/>
<path d="M30.21 26.3603H22.2422V9.6279C22.2422 9.33451 22.48 9.09668 22.7734 9.09668H29.6788C29.9722 9.09668 30.21 9.33451 30.21 9.6279V26.3603Z" fill="#F78E36"/>
<path d="M40.5088 25.3936H11.9473C11.4132 25.3936 10.9805 25.8263 10.9805 26.3604C10.9805 26.8944 11.4132 27.3271 11.9473 27.3271H40.5088C41.0428 27.3271 41.4756 26.8944 41.4756 26.3604C41.4756 25.8263 41.0428 25.3936 40.5088 25.3936Z" fill="#43809F"/>
<path d="M37.3832 35.8249H32.6744L30.5372 30.3612C30.3911 29.9878 30.0269 29.7434 29.6282 29.7466C29.2271 29.7502 28.8698 30.0012 28.7303 30.3774L25.7913 38.3024L23.7301 32.4601C23.6038 32.1017 23.2792 31.8506 22.9005 31.8184C22.5213 31.785 22.1595 31.9785 21.9742 32.3103L20.012 35.8248H15.3184C14.7843 35.8248 14.3516 36.2575 14.3516 36.7916C14.3516 37.3257 14.7843 37.7584 15.3184 37.7584H20.5794C20.9298 37.7584 21.2528 37.5688 21.4236 37.2629L22.6187 35.1221L24.8568 41.4656C24.9921 41.8496 25.3536 42.1074 25.7608 42.1108H25.7687C26.1725 42.1108 26.5344 41.8594 26.675 41.4801L29.6607 33.4288L31.1139 37.1438C31.2589 37.5144 31.6161 37.7584 32.0142 37.7584H37.3829C37.9169 37.7584 38.3497 37.3257 38.3497 36.7916C38.3497 36.2575 37.9173 35.8249 37.3832 35.8249Z" fill="#29CEF6"/>
</g>
<defs>
<clipPath id="clip0">
<rect width="66" height="66" fill="white"/>
</clipPath>
</defs>
</svg>
