<svg width="74" height="74" viewBox="0 0 74 74" fill="none" xmlns="http://www.w3.org/2000/svg">
<g clip-path="url(#clip0)">
<path d="M36.9959 73.9976C57.4292 73.9976 73.9937 57.4331 73.9937 36.9998C73.9937 16.5664 57.4292 0.00195312 36.9959 0.00195312C16.5625 0.00195312 -0.00195592 16.5664 -0.00195936 36.9998C-0.00196281 57.4331 16.5625 73.9976 36.9959 73.9976Z" fill="#F8587E"/>
<g opacity="0.95">
<path d="M44.1962 18.0874C36.7226 14.3307 27.8565 16.3577 22.6928 22.4896L18.6641 20.4626L20.4844 25.8112L22.4607 31.6168L27.929 29.8581L33.6766 28.0087L30.5653 26.4458C34.3111 23.2112 40.2073 22.5186 45.4001 25.1295C50.3027 27.5917 53.2146 32.3094 53.2218 36.9872C53.2218 36.9872 53.2218 36.9908 53.2218 36.9944C53.2291 37.096 53.298 38.0279 53.5264 37.8248C53.5264 37.8212 53.5264 37.8212 53.5264 37.8212V37.8176C55.2851 30.0611 51.6263 21.8188 44.1962 18.0874Z" fill="white"/>
<path d="M29.7994 55.9128C37.273 59.6695 46.1391 57.6425 51.3028 51.5106L55.3315 53.5376L53.5112 48.189L51.5349 42.3834L46.0665 44.1421L40.319 45.9915L43.4303 47.5544C39.6844 50.7889 33.7882 51.4816 28.5955 48.8707C23.6929 46.4085 20.781 41.6908 20.7738 37.013C20.7738 37.013 20.7738 37.0094 20.7738 37.0057C20.7665 36.9042 20.6976 35.9723 20.4692 36.1753C20.4692 36.179 20.4692 36.179 20.4692 36.179V36.1826C18.7141 43.939 22.3729 52.1778 29.7994 55.9128Z" fill="white"/>
</g>
</g>
<defs>
<clipPath id="clip0">
<rect width="74" height="74" fill="white"/>
</clipPath>
</defs>
</svg>
